<svg width="314" height="474" viewBox="0 0 314 474" fill="none" xmlns="http://www.w3.org/2000/svg">
<rect width="313.057" height="473.624" rx="35" transform="matrix(-1 0 0 1 313.18 0.195374)" fill="url(#paint0_linear_106_894)"/>
<path d="M78.3623 155.597C83.5188 150.057 89.6311 145.675 96.3497 142.7C103.068 139.726 110.261 138.218 117.518 138.262C124.774 138.306 131.951 139.902 138.638 142.958C149.446 147.897 163.533 147.623 174.258 142.507C180.953 139.314 188.169 137.603 195.481 137.474C202.794 137.345 210.057 138.802 216.844 141.759C223.631 144.715 229.806 149.112 235.006 154.692C240.207 160.272 244.329 166.921 247.13 174.252C249.931 181.582 251.356 189.446 251.32 197.381C251.284 205.317 249.788 213.165 246.92 220.465C244.053 227.765 239.871 234.371 234.62 239.895L161.136 319.581C160.529 320.248 159.805 320.777 159.008 321.139C158.211 321.5 157.355 321.686 156.491 321.686C155.627 321.686 154.772 321.5 153.974 321.139C153.177 320.777 152.454 320.248 151.846 319.581L78.3623 239.895C68.127 228.678 62.3854 213.531 62.3854 197.746C62.3854 181.961 68.127 166.814 78.3623 155.597Z" fill="black"/>
<defs>
<linearGradient id="paint0_linear_106_894" x1="313.057" y1="1.16503e-05" x2="12.4809" y2="481.417" gradientUnits="userSpaceOnUse">
<stop stop-color="#BE9F60"/>
<stop offset="0.325" stop-color="#F6E486"/>
<stop offset="0.545" stop-color="#8A603C"/>
<stop offset="1" stop-color="#C39853"/>
</linearGradient>
</defs>
</svg>
