<svg width="359" height="520" viewBox="0 0 359 520" fill="none" xmlns="http://www.w3.org/2000/svg">
<rect width="358.358" height="519.387" rx="35" transform="matrix(1 0 0 -1 0.316406 519.79)" fill="url(#paint0_linear_106_890)"/>
<path d="M176.951 153.56C185.759 153.56 192.664 167.679 187.953 175.122C187.694 175.531 187.441 175.934 187.193 176.332C185.329 179.326 166.874 179.206 165.206 176.1C164.972 175.665 164.742 175.238 164.514 174.82C160.279 167.033 167.175 153.56 176.039 153.56C176.343 153.56 176.647 153.56 176.951 153.56Z" fill="black"/>
<path d="M93.1939 293.248C87.8612 287.607 83.6308 280.909 80.7443 273.537C77.8579 266.165 76.3718 258.264 76.3711 250.284C76.3703 242.305 77.8549 234.404 80.74 227.031C83.625 219.659 87.8542 212.96 93.1858 207.317C98.5175 201.674 104.847 197.198 111.814 194.143C118.781 191.089 126.247 189.517 133.788 189.516C141.329 189.515 148.796 191.086 155.764 194.139C162.731 197.192 169.061 201.667 174.394 207.309C174.633 207.563 174.92 207.762 175.236 207.893C175.551 208.023 175.889 208.083 176.228 208.067L176.777 208.044C177.381 208.018 177.954 207.758 178.388 207.313C189.24 196.007 203.891 189.727 219.12 189.852C234.348 189.978 248.905 196.499 259.589 207.982C270.273 219.465 276.209 234.969 276.09 251.083C275.971 267.196 269.808 282.6 258.956 293.906L201.563 354.63C187.71 369.287 164.369 369.235 150.582 354.516L93.1939 293.248Z" fill="black"/>
<defs>
<linearGradient id="paint0_linear_106_890" x1="444.733" y1="158.096" x2="25.2589" y2="546.655" gradientUnits="userSpaceOnUse">
<stop offset="0.025" stop-color="#BE9F60"/>
<stop offset="0.24" stop-color="#8A603C"/>
<stop offset="0.505" stop-color="#E2B561"/>
<stop offset="1" stop-color="#865F2C"/>
</linearGradient>
</defs>
</svg>
