<svg width="340" height="317" viewBox="0 0 340 317" fill="none" xmlns="http://www.w3.org/2000/svg">
<g style="mix-blend-mode:multiply">
<path opacity="0.05" d="M83.547 61.6996L192.38 37.013C194.798 36.4695 197.698 36.5461 200.019 37.2441C201.339 37.6229 202.56 38.182 203.772 38.9714C206.775 40.99 208.861 44.0307 209.638 47.5235L250.815 228.627C251.633 232.26 251.061 236.065 249.038 239.301C247.066 242.447 243.931 244.713 240.304 245.528L131.421 270.305C129.003 270.848 126.103 270.772 123.782 270.074C122.462 269.695 121.241 269.136 120.029 268.346C117.026 266.328 114.94 263.287 114.162 259.794L72.8955 78.6404C72.0779 75.0075 72.6497 71.2028 74.6723 67.9669C76.6452 64.8212 79.7796 62.555 83.4071 61.7398L83.547 61.6996Z" fill="url(#paint0_linear_934_10595)"/>
<path opacity="0.1" d="M83.7274 61.7999L192.281 37.1937C194.559 36.6905 197.598 36.7269 199.829 37.3749C201.15 37.7537 202.371 38.3128 203.492 39.0523C206.455 40.9307 208.541 43.9715 209.409 47.5142L250.586 228.618C251.403 232.251 250.791 235.916 248.818 239.061C246.845 242.207 243.761 244.383 240.183 245.108L131.63 269.714C129.351 270.218 126.312 270.181 124.081 269.533C122.761 269.154 121.54 268.595 120.418 267.856C117.455 265.977 115.369 262.937 114.592 259.444L73.3652 78.4301C72.5476 74.7972 73.1597 71.1325 75.1325 67.9868C77.1054 64.8411 80.19 62.6651 83.7677 61.94L83.7274 61.7999Z" fill="url(#paint1_linear_934_10595)"/>
<path opacity="0.14" d="M83.9988 61.9493L192.182 37.3735C194.37 36.8203 197.64 36.8665 199.781 37.4645C201.101 37.8434 202.372 38.3124 203.493 39.0518C206.457 40.9303 208.592 43.8808 209.37 47.3736L250.546 228.478C251.324 231.97 250.712 235.635 248.789 238.691C246.865 241.746 243.921 243.882 240.293 244.697L132.11 269.273C129.922 269.826 126.652 269.78 124.511 269.182C123.191 268.803 121.92 268.334 120.799 267.595C117.836 265.716 115.7 262.766 114.922 259.273L73.7457 78.1689C72.9684 74.6761 73.5804 71.0114 75.5035 67.9559C77.4265 64.9003 80.3713 62.7645 83.9988 61.9493Z" fill="url(#paint2_linear_934_10595)"/>
<path opacity="0.19" d="M84.1784 62.0493L192.082 37.554C194.13 37.041 197.589 36.9568 199.59 37.5951C200.911 37.9739 202.091 38.3929 203.353 39.0922C206.366 40.8805 208.502 43.8311 209.279 47.3238L250.456 228.428C251.233 231.92 250.581 235.445 248.797 238.46C247.014 241.476 243.979 243.562 240.492 244.337L132.588 268.832C130.54 269.345 127.081 269.429 125.08 268.791C123.759 268.412 122.579 267.993 121.318 267.294C118.304 265.505 116.169 262.555 115.391 259.062L74.2145 77.9582C73.4373 74.4654 74.0896 70.9409 75.8728 67.9255C77.6559 64.9102 80.6908 62.8243 84.1784 62.0493Z" fill="url(#paint3_linear_934_10595)"/>
<path opacity="0.24" d="M84.4492 62.1988L192.073 37.784C193.982 37.3112 197.671 37.2367 199.541 37.6849C200.772 38.0138 202.092 38.3926 203.263 39.0419C206.326 40.7401 208.462 43.6906 209.239 47.1834L250.416 228.287C251.243 231.69 250.591 235.214 248.767 238.09C246.944 240.965 244.049 243.011 240.651 243.836L133.028 268.25C131.119 268.723 127.43 268.798 125.559 268.349C124.329 268.021 123.008 267.642 121.837 266.992C118.774 265.294 116.639 262.344 115.861 258.851L74.6845 77.7471C73.8575 74.3445 74.5098 70.8199 76.3333 67.9447C78.1567 65.0694 81.0517 63.0238 84.4492 62.1988Z" fill="url(#paint4_linear_934_10595)"/>
<path opacity="0.29" d="M84.6297 62.2989L191.884 37.9145C193.742 37.5318 197.531 37.277 199.402 37.7253C200.632 38.0541 201.952 38.433 203.124 39.0823C206.096 40.7305 208.372 43.6408 209.149 47.1336L250.326 228.237C251.063 231.59 250.461 235.025 248.687 237.81C246.864 240.685 244.108 242.69 240.761 243.425L133.507 267.81C131.648 268.192 127.859 268.447 125.989 267.999C124.758 267.67 123.438 267.291 122.267 266.642C119.294 264.994 117.018 262.083 116.241 258.59L75.0642 77.4865C74.3272 74.1338 74.9297 70.6994 76.7034 67.9144C78.5269 65.0391 81.282 63.0337 84.6297 62.2989Z" fill="url(#paint5_linear_934_10595)"/>
<path opacity="0.33" d="M84.81 62.3987L191.734 38.1849C193.453 37.8425 197.522 37.5073 199.162 37.9458C200.393 38.2746 201.763 38.5633 202.844 39.1627C205.817 40.8109 208.142 43.6311 208.92 47.1239L250.096 228.228C250.883 231.49 250.24 234.785 248.557 237.62C246.873 240.455 244.028 242.41 240.82 243.105L133.896 267.318C132.177 267.661 128.108 267.996 126.468 267.558C125.237 267.229 123.867 266.94 122.696 266.291C119.723 264.643 117.398 261.822 116.62 258.33L75.5338 77.2757C74.747 74.0132 75.3898 70.7189 77.0734 67.8839C78.8471 65.0988 81.6022 63.0933 84.81 62.3987Z" fill="url(#paint6_linear_934_10595)"/>
<path opacity="0.38" d="M85.0799 62.5484L191.634 38.3651C193.263 37.9727 197.471 37.5973 199.022 37.9858C200.302 38.2246 201.533 38.5534 202.754 39.1126C205.776 40.6706 208.102 43.4908 208.789 46.9337L249.966 228.038C250.662 231.25 250.159 234.504 248.435 237.199C246.712 239.894 244.006 241.809 240.889 242.554L134.334 266.737C132.705 267.13 128.497 267.505 126.947 267.116C125.666 266.878 124.436 266.549 123.215 265.99C120.192 264.432 117.957 261.661 117.18 258.169L75.863 77.105C75.1663 73.8924 75.6693 70.6383 77.3931 67.9434C79.117 65.2485 81.8223 63.3332 84.94 62.5887L85.0799 62.5484Z" fill="url(#paint7_linear_934_10595)"/>
<path opacity="0.43" d="M85.2593 62.6481L191.534 38.5452C193.023 38.193 197.461 37.8273 198.881 38.0258C200.162 38.2645 201.442 38.5033 202.663 39.0624C205.735 40.5303 207.971 43.3006 208.748 46.7934L249.925 227.897C250.671 231.02 250.078 234.224 248.404 236.829C246.73 239.433 244.115 241.399 240.997 242.143L134.722 266.246C133.233 266.598 128.795 266.964 127.375 266.765C126.095 266.527 124.815 266.288 123.594 265.729C120.521 264.261 118.286 261.491 117.508 257.998L76.3317 76.894C75.5852 73.7715 76.1782 70.5674 77.8523 67.9626C79.5264 65.3578 82.1416 63.3926 85.2593 62.6481Z" fill="url(#paint8_linear_934_10595)"/>
<path opacity="0.48" d="M85.5787 62.7079L191.484 38.6354C192.833 38.3235 197.461 37.8274 198.831 38.1161C200.111 38.3548 201.441 38.5034 202.522 39.1027C205.505 40.5206 207.88 43.2507 208.657 46.7435L249.834 227.847C250.49 230.92 249.947 234.034 248.273 236.639C246.599 239.243 244.033 241.118 240.966 241.773L135.061 265.845C133.712 266.157 129.084 266.653 127.713 266.365C126.433 266.126 125.103 265.977 124.022 265.378C121.04 263.96 118.664 261.23 117.887 257.737L76.8005 76.6833C76.1441 73.6108 76.6873 70.4968 78.3614 67.892C80.0355 65.2873 82.6009 63.4122 85.6688 62.7578L85.5787 62.7079Z" fill="url(#paint9_linear_934_10595)"/>
<path opacity="0.52" d="M85.76 62.8078L191.385 38.8158C192.594 38.544 197.502 37.9675 198.692 38.1563C199.972 38.395 201.302 38.5436 202.433 39.0528C205.465 40.3806 207.841 43.1106 208.618 46.6034L249.795 227.707C250.501 230.69 249.868 233.754 248.333 236.318C246.799 238.883 244.284 240.668 241.216 241.322L135.591 265.314C134.381 265.586 129.474 266.162 128.284 265.974C127.003 265.735 125.673 265.586 124.542 265.077C121.51 263.749 119.135 261.019 118.358 257.526L77.181 76.4226C76.4748 73.4403 77.1081 70.3762 78.6423 67.8117C80.2666 65.297 82.6921 63.4622 85.76 62.8078Z" fill="url(#paint10_linear_934_10595)"/>
<path opacity="0.57" d="M85.94 62.9075L191.146 39.0361C192.215 38.8045 197.312 38.0977 198.362 38.3267C199.643 38.5654 200.932 38.5739 202.153 39.133C205.185 40.4608 207.61 43.1007 208.388 46.5935L249.565 227.697C250.181 230.63 249.687 233.654 248.113 236.078C246.538 238.502 244.113 240.337 241.185 240.952L135.979 264.823C134.91 265.054 129.813 265.761 128.762 265.532C127.482 265.294 126.192 265.285 124.971 264.726C121.939 263.398 119.514 260.758 118.827 257.315L77.6502 76.2116C77.0341 73.2792 77.5275 70.2554 79.102 67.8309C80.6765 65.4064 83.102 63.5716 86.0301 62.9574L85.94 62.9075Z" fill="url(#paint11_linear_934_10595)"/>
<path opacity="0.62" d="M86.2112 63.0573L191.137 39.2663C192.066 39.075 197.443 38.2878 198.314 38.4168C199.594 38.6556 200.884 38.664 202.064 39.0831C205.146 40.3207 207.571 42.9606 208.258 46.4035L249.435 227.507C250.101 230.35 249.567 233.233 247.993 235.658C246.468 237.992 244.092 239.737 241.254 240.401L136.329 264.192C135.399 264.383 130.022 265.17 129.152 265.041C127.872 264.803 126.582 264.794 125.402 264.375C122.32 263.138 119.895 260.498 119.207 257.055L78.0305 75.9509C77.3646 73.1087 77.8983 70.2249 79.4728 67.8005C80.9975 65.4662 83.3733 63.7214 86.2112 63.0573Z" fill="url(#paint12_linear_934_10595)"/>
<path opacity="0.67" d="M86.3899 63.1568L190.946 39.3962C191.785 39.155 197.352 38.2373 198.172 38.4566C199.512 38.3749 200.792 38.6136 201.973 39.0326C205.104 40.1801 207.529 42.82 208.217 46.2629L249.393 227.367C250.059 230.209 249.485 232.953 248.051 235.337C246.526 237.671 244.29 239.376 241.452 240.04L136.896 263.8C136.057 264.042 130.49 264.959 129.67 264.74C128.33 264.822 127.05 264.583 125.87 264.164C122.738 263.016 120.363 260.286 119.626 256.934L78.4985 75.7396C77.8326 72.8974 78.4066 70.1538 79.8412 67.7695C81.3659 65.4352 83.6018 63.7307 86.3899 63.1568Z" fill="url(#paint13_linear_934_10595)"/>
<path opacity="0.71" d="M86.6606 63.3069L190.937 39.6268C191.636 39.4257 197.393 38.3777 198.073 38.6372C199.413 38.5555 200.603 38.7443 201.873 39.2132C204.915 40.3108 207.34 42.9507 208.167 46.3533L249.344 227.457C249.97 230.159 249.486 232.953 248.011 235.197C246.626 237.491 244.3 239.146 241.602 239.77L137.326 263.45C136.626 263.651 130.87 264.699 130.19 264.439C128.85 264.521 127.66 264.332 126.389 263.863C123.348 262.766 120.922 260.126 120.095 256.723L78.9684 75.5291C78.3428 72.827 78.8267 70.0334 80.3016 67.7893C81.6864 65.4952 84.0124 63.8406 86.7104 63.2167L86.6606 63.3069Z" fill="url(#paint14_linear_934_10595)"/>
<path opacity="0.76" d="M86.8407 63.4063L190.747 39.7566C190.747 39.7566 197.253 38.4174 197.843 38.6269C199.092 38.4953 200.422 38.6439 201.603 39.0629C204.695 40.0703 207.12 42.7102 207.947 46.1128L249.124 227.217C249.749 229.919 249.225 232.572 247.8 234.726C246.375 236.88 244.279 238.545 241.581 239.169L137.674 262.818C137.674 262.818 131.169 264.157 130.578 263.948C129.329 264.079 127.999 263.931 126.818 263.512C123.727 262.505 121.302 259.865 120.475 256.462L79.2979 75.358C78.6723 72.6559 79.1965 70.0025 80.6216 67.8484C81.9566 65.6445 84.1427 64.0302 86.8407 63.4063Z" fill="url(#paint15_linear_934_10595)"/>
<path opacity="0.81" d="M87.0206 63.5061L190.597 40.027C190.597 40.027 197.243 38.6476 197.743 38.8072C198.993 38.6756 200.323 38.8241 201.553 39.153C204.644 40.1604 207.119 42.7101 207.946 46.1128L249.123 227.217C249.709 229.779 249.184 232.432 247.899 234.546C246.614 236.66 244.428 238.274 241.87 238.858L138.293 262.337C138.293 262.337 131.647 263.716 131.147 263.557C129.898 263.688 128.568 263.54 127.337 263.211C124.246 262.203 121.771 259.654 120.944 256.251L79.7671 75.1472C79.1817 72.5852 79.706 69.9317 80.9912 67.8179C82.2764 65.7041 84.4625 64.0898 87.0206 63.5061Z" fill="url(#paint16_linear_934_10595)"/>
<path opacity="0.86" d="M87.3421 63.566L190.639 40.1674C190.639 40.1674 197.334 38.6978 197.695 38.8975C198.994 38.6758 200.324 38.8243 201.554 39.1532C204.696 40.0704 207.171 42.6202 207.908 45.9729L249.084 227.077C249.67 229.639 249.105 232.152 247.87 234.176C246.585 236.29 244.498 237.724 242.03 238.357L138.733 261.756C138.733 261.756 132.038 263.225 131.677 263.026C130.378 263.247 129.048 263.099 127.818 262.77C124.676 261.853 122.201 259.303 121.465 255.95L80.1478 74.8867C79.5625 72.3246 80.127 69.8113 81.3624 67.7876C82.6476 65.6738 84.7341 64.2398 87.2022 63.6062L87.3421 63.566Z" fill="url(#paint17_linear_934_10595)"/>
<path opacity="0.9" d="M87.5215 63.6656L190.449 40.2974C190.449 40.2974 197.234 38.8778 197.464 38.8875C198.763 38.6657 200.053 38.6742 201.234 39.0932C204.285 39.9605 206.9 42.47 207.637 45.8227L248.813 226.927C249.358 229.349 248.934 231.822 247.608 233.795C246.283 235.769 244.377 237.303 241.868 237.797L138.941 261.165C138.941 261.165 132.156 262.584 131.926 262.575C130.626 262.796 129.337 262.788 128.156 262.369C125.105 261.502 122.49 258.992 121.753 255.639L80.6166 74.6756C80.0715 72.2536 80.4961 69.7805 81.8216 67.8068C83.1471 65.8331 85.0534 64.2992 87.5618 63.8057L87.5215 63.6656Z" fill="url(#paint18_linear_934_10595)"/>
<path opacity="0.95" d="M87.7915 63.8152L190.439 40.5275C190.439 40.5275 197.274 39.0177 197.414 38.9775C198.713 38.7557 200.003 38.7642 201.233 39.093C204.334 39.8701 206.999 42.2895 207.686 45.7324L248.863 226.836C249.408 229.258 248.943 231.591 247.757 233.525C246.572 235.458 244.575 236.942 242.157 237.486L139.51 260.773C139.51 260.773 132.675 262.283 132.535 262.323C131.235 262.545 129.946 262.537 128.715 262.208C125.614 261.431 122.95 259.011 122.263 255.569L81.0857 74.4646C80.5407 72.0427 81.0056 69.7096 82.1912 67.7761C83.3768 65.8427 85.3732 64.3587 87.7915 63.8152Z" fill="url(#paint19_linear_934_10595)"/>
<path d="M197.209 39.1569L88.0706 63.9573C83.417 65.0148 80.5035 69.6532 81.5632 74.3175L122.7 255.393C123.759 260.057 128.391 262.981 133.044 261.923L242.183 237.123C246.836 236.066 249.75 231.427 248.69 226.763L207.553 45.6877C206.494 41.0234 201.862 38.0994 197.209 39.1569Z" fill="url(#paint20_linear_934_10595)"/>
</g>
<path d="M197.206 39.1571L88.0686 63.9566C83.415 65.0141 80.5016 69.6525 81.5613 74.3168L122.699 255.393C123.759 260.057 128.39 262.981 133.044 261.924L242.181 237.124C246.834 236.067 249.748 231.428 248.688 226.764L207.55 45.6879C206.491 41.0236 201.859 38.0996 197.206 39.1571Z" fill="url(#paint21_linear_934_10595)"/>
<g style="mix-blend-mode:multiply" opacity="0.5">
<path d="M242.022 236.377L132.772 261.183C128.166 262.28 123.541 259.362 122.491 254.658L122.692 255.359C123.792 259.972 128.417 262.89 132.974 261.883L242.223 237.078C246.83 235.981 249.739 231.353 248.73 226.79L248.528 226.089C249.628 230.703 246.718 235.331 242.022 236.377Z" fill="#BDA688"/>
</g>
<g style="mix-blend-mode:screen" opacity="0.5">
<path d="M197.264 39.1078L88.0147 63.9133C83.4082 65.0099 80.4988 69.6382 81.5083 74.2017L81.7097 74.9022C80.6102 70.2887 83.5195 65.6605 88.2161 64.6138L197.326 39.8485C201.932 38.7519 206.557 41.6694 207.607 46.373L207.406 45.6725C206.306 41.0591 201.681 38.1415 197.124 39.148L197.264 39.1078Z" fill="#918069"/>
</g>
<path d="M103.507 95.7323C103.507 95.7323 102.68 96.8044 101.565 99.2484C100.591 101.652 100.204 103.204 100.204 103.204C100.204 103.204 99.3718 102.154 97.2382 100.265C95.1947 98.4251 94.0638 97.9159 94.0638 97.9159C94.0638 97.9159 94.9009 96.6135 95.8565 94.6702C96.9308 92.0862 97.3672 90.4438 97.3672 90.4438C97.3672 90.4438 98.2396 91.6341 100.373 93.5236C102.196 95.1232 103.457 95.8225 103.457 95.8225L103.507 95.7323Z" fill="#940306"/>
<path d="M94.3821 84.7809L94.4695 88.2445L92.7506 88.5869L92.1642 71.5394L94.8623 70.9155L101.724 86.6141L99.8656 86.9968L98.4292 83.8451L94.292 84.731L94.3821 84.7809ZM94.2186 83.1594L97.8461 82.3442L93.8876 73.3192L94.2186 83.1594Z" fill="#940306"/>
<path d="M226.681 205.349C226.681 205.349 227.509 204.277 228.623 201.833C229.598 199.429 229.984 197.877 229.984 197.877C229.984 197.877 230.816 198.927 232.95 200.816C234.994 202.656 236.124 203.165 236.124 203.165C236.124 203.165 235.287 204.468 234.332 206.411C233.258 208.995 232.821 210.637 232.821 210.637C232.821 210.637 231.949 209.447 229.815 207.557C227.992 205.958 226.731 205.259 226.731 205.259L226.681 205.349Z" fill="#940306"/>
<path d="M235.715 216.25L235.628 212.787L237.346 212.444L237.933 229.492L235.235 230.116L228.373 214.417L230.231 214.034L231.668 217.186L235.805 216.3L235.715 216.25ZM235.878 217.872L232.251 218.687L236.209 227.712L235.878 217.872Z" fill="#940306"/>
<path d="M190.001 144.86C190.001 144.86 185.794 150.771 180.093 163.862C174.542 176.683 172.829 184.683 172.829 184.683C172.829 184.683 168.508 178.872 157.119 169.025C146.311 159.618 140.185 156.222 140.185 156.222C140.185 156.222 144.7 149.539 149.286 138.892C155.296 125.03 157.217 116.438 157.217 116.438C157.217 116.438 161.849 122.539 173.458 132.626C183.064 141.014 189.861 144.9 189.861 144.9L190.001 144.86Z" fill="#940306"/>
<defs>
<linearGradient id="paint0_linear_934_10595" x1="106.776" y1="262.17" x2="217.622" y2="46.1622" gradientUnits="userSpaceOnUse">
<stop stop-color="#FCFBF9"/>
<stop offset="1" stop-color="#FCFBF9"/>
</linearGradient>
<linearGradient id="paint1_linear_934_10595" x1="110.5" y1="264.194" x2="214.364" y2="44.3159" gradientUnits="userSpaceOnUse">
<stop stop-color="#F9F7F4"/>
<stop offset="1" stop-color="#F9F7F4"/>
</linearGradient>
<linearGradient id="paint2_linear_934_10595" x1="114.418" y1="265.748" x2="210.907" y2="42.3946" gradientUnits="userSpaceOnUse">
<stop stop-color="#F6F2EE"/>
<stop offset="1" stop-color="#F6F2EE"/>
</linearGradient>
<linearGradient id="paint3_linear_934_10595" x1="118.237" y1="266.183" x2="206.84" y2="40.1406" gradientUnits="userSpaceOnUse">
<stop stop-color="#F2EEE8"/>
<stop offset="1" stop-color="#F2EEE8"/>
</linearGradient>
<linearGradient id="paint4_linear_934_10595" x1="121.6" y1="265.432" x2="201.957" y2="37.5432" gradientUnits="userSpaceOnUse">
<stop stop-color="#EFEAE3"/>
<stop offset="1" stop-color="#EFEAE3"/>
</linearGradient>
<linearGradient id="paint5_linear_934_10595" x1="127.749" y1="270.898" x2="200.286" y2="39.4646" gradientUnits="userSpaceOnUse">
<stop stop-color="#ECE6DD"/>
<stop offset="1" stop-color="#ECE6DD"/>
</linearGradient>
<linearGradient id="paint6_linear_934_10595" x1="130.362" y1="267.258" x2="194.081" y2="35.4748" gradientUnits="userSpaceOnUse">
<stop stop-color="#E9E1D7"/>
<stop offset="1" stop-color="#E9E1D7"/>
</linearGradient>
<linearGradient id="paint7_linear_934_10595" x1="136.321" y1="270.991" x2="191.597" y2="37.3359" gradientUnits="userSpaceOnUse">
<stop stop-color="#E6DDD2"/>
<stop offset="1" stop-color="#E6DDD2"/>
</linearGradient>
<linearGradient id="paint8_linear_934_10595" x1="142.165" y1="273.835" x2="188.828" y2="38.9885" gradientUnits="userSpaceOnUse">
<stop stop-color="#E3D9CC"/>
<stop offset="1" stop-color="#E3D9CC"/>
</linearGradient>
<linearGradient id="paint9_linear_934_10595" x1="142.265" y1="263.982" x2="179.734" y2="31.5176" gradientUnits="userSpaceOnUse">
<stop stop-color="#E0D5C6"/>
<stop offset="1" stop-color="#E0D5C6"/>
</linearGradient>
<linearGradient id="paint10_linear_934_10595" x1="146.408" y1="263.059" x2="175.16" y2="31.3737" gradientUnits="userSpaceOnUse">
<stop stop-color="#DCD0C1"/>
<stop offset="1" stop-color="#DCD0C1"/>
</linearGradient>
<linearGradient id="paint11_linear_934_10595" x1="156.411" y1="273.048" x2="176.726" y2="40.4695" gradientUnits="userSpaceOnUse">
<stop stop-color="#D9CCBB"/>
<stop offset="1" stop-color="#D9CCBB"/>
</linearGradient>
<linearGradient id="paint12_linear_934_10595" x1="159.374" y1="268.916" x2="171.109" y2="38.8408" gradientUnits="userSpaceOnUse">
<stop stop-color="#D6C8B5"/>
<stop offset="1" stop-color="#D6C8B5"/>
</linearGradient>
<linearGradient id="paint13_linear_934_10595" x1="160.828" y1="262.545" x2="164.261" y2="35.7737" gradientUnits="userSpaceOnUse">
<stop stop-color="#D3C4B0"/>
<stop offset="1" stop-color="#D3C4B0"/>
</linearGradient>
<linearGradient id="paint14_linear_934_10595" x1="169.123" y1="268.367" x2="164.505" y2="43.3087" gradientUnits="userSpaceOnUse">
<stop stop-color="#D0BFAA"/>
<stop offset="1" stop-color="#D0BFAA"/>
</linearGradient>
<linearGradient id="paint15_linear_934_10595" x1="168.198" y1="257.232" x2="155.895" y2="37.0656" gradientUnits="userSpaceOnUse">
<stop stop-color="#CDBBA4"/>
<stop offset="1" stop-color="#CDBBA4"/>
</linearGradient>
<linearGradient id="paint16_linear_934_10595" x1="174.208" y1="259.485" x2="154.541" y2="42.5848" gradientUnits="userSpaceOnUse">
<stop stop-color="#CAB79F"/>
<stop offset="1" stop-color="#CAB79F"/>
</linearGradient>
<linearGradient id="paint17_linear_934_10595" x1="179.48" y1="259.952" x2="152.783" y2="46.9532" gradientUnits="userSpaceOnUse">
<stop stop-color="#C6B399"/>
<stop offset="1" stop-color="#C6B399"/>
</linearGradient>
<linearGradient id="paint18_linear_934_10595" x1="183.407" y1="258.454" x2="150.137" y2="49.9677" gradientUnits="userSpaceOnUse">
<stop stop-color="#C3AE93"/>
<stop offset="1" stop-color="#C3AE93"/>
</linearGradient>
<linearGradient id="paint19_linear_934_10595" x1="186.247" y1="254.942" x2="146.898" y2="51.5549" gradientUnits="userSpaceOnUse">
<stop stop-color="#C0AA8E"/>
<stop offset="1" stop-color="#C0AA8E"/>
</linearGradient>
<linearGradient id="paint20_linear_934_10595" x1="187.591" y1="249.423" x2="142.606" y2="51.4591" gradientUnits="userSpaceOnUse">
<stop stop-color="#BDA688"/>
<stop offset="1" stop-color="#BDA688"/>
</linearGradient>
<linearGradient id="paint21_linear_934_10595" x1="187.589" y1="249.423" x2="142.605" y2="51.4584" gradientUnits="userSpaceOnUse">
<stop stop-color="#D1AA5E"/>
<stop offset="0.04" stop-color="#CDA04D"/>
<stop offset="0.09" stop-color="#CA963C"/>
<stop offset="0.13" stop-color="#C99336"/>
<stop offset="0.21" stop-color="#CF9E44"/>
<stop offset="0.58" stop-color="#E9D181"/>
<stop offset="0.76" stop-color="#F4E59A"/>
<stop offset="0.82" stop-color="#F2E296"/>
<stop offset="0.88" stop-color="#EFDC8B"/>
<stop offset="0.94" stop-color="#E9D278"/>
<stop offset="0.99" stop-color="#E1C35F"/>
<stop offset="1" stop-color="#E0C15A"/>
</linearGradient>
</defs>
</svg>
