<svg width="31" height="31" viewBox="0 0 31 31" fill="none" xmlns="http://www.w3.org/2000/svg">
<path d="M27.5171 12.6717H26.5006V12.6194H15.1432V17.6671H22.275C21.2346 20.6055 18.4388 22.7148 15.1432 22.7148C10.9618 22.7148 7.57165 19.3246 7.57165 15.1432C7.57165 10.9618 10.9618 7.57165 15.1432 7.57165C17.0734 7.57165 18.8293 8.29978 20.1664 9.48915L23.7357 5.91978C21.4819 3.8193 18.4672 2.52393 15.1432 2.52393C8.17422 2.52393 2.52393 8.17422 2.52393 15.1432C2.52393 22.1123 8.17422 27.7625 15.1432 27.7625C22.1123 27.7625 27.7625 22.1123 27.7625 15.1432C27.7625 14.2971 27.6755 13.4712 27.5171 12.6717Z" fill="#FFC107"/>
<path d="M3.97852 9.26958L8.12459 12.3102C9.24645 9.53269 11.9634 7.57165 15.1428 7.57165C17.0729 7.57165 18.8289 8.29978 20.1659 9.48915L23.7353 5.91978C21.4815 3.8193 18.4667 2.52393 15.1428 2.52393C10.2957 2.52393 6.09225 5.26042 3.97852 9.26958Z" fill="#FF3D00"/>
<path d="M15.143 27.7625C18.4026 27.7625 21.3644 26.5151 23.6037 24.4866L19.698 21.1816C18.3884 22.1775 16.7882 22.7161 15.143 22.7148C11.8608 22.7148 9.07378 20.6219 8.02385 17.7012L3.90869 20.8718C5.99719 24.9585 10.2385 27.7625 15.143 27.7625Z" fill="#4CAF50"/>
<path d="M27.5169 12.6715H26.5004V12.6191H15.1431V17.6669H22.2749C21.7772 19.0653 20.8807 20.2874 19.6961 21.182L19.698 21.1807L23.6037 24.4857C23.3273 24.7368 27.7624 21.4527 27.7624 15.143C27.7624 14.2969 27.6753 13.4709 27.5169 12.6715Z" fill="#1976D2"/>
</svg>
