<svg width="32" height="48" viewBox="0 0 32 48" fill="none" xmlns="http://www.w3.org/2000/svg">
<rect x="0.0546875" y="0.804871" width="30.961" height="46.841" rx="3" fill="url(#paint0_linear_9_892)"/>
<path d="M24.0321 16.8781C23.5222 16.3303 22.9177 15.8969 22.2532 15.6027C21.5887 15.3085 20.8773 15.1593 20.1597 15.1637C19.4421 15.1681 18.7323 15.3259 18.0709 15.6281C17.4095 15.9304 16.8095 16.3711 16.3053 16.9251C15.8077 16.3555 15.2103 15.8994 14.5481 15.5836C13.886 15.2678 13.1724 15.0985 12.4492 15.0858C11.726 15.0731 11.0077 15.2171 10.3364 15.5096C9.6652 15.802 9.05452 16.2368 8.54018 16.7886C8.02585 17.3404 7.61821 17.9981 7.34117 18.7231C7.06413 19.4481 6.92326 20.2258 6.92682 21.0106C6.93038 21.7954 7.0783 22.5716 7.3619 23.2935C7.6455 24.0155 8.05909 24.6688 8.5784 25.2151L15.8459 33.096C15.906 33.1619 15.9775 33.2143 16.0563 33.2501C16.1352 33.2858 16.2198 33.3042 16.3053 33.3042C16.3907 33.3042 16.4753 33.2858 16.5542 33.2501C16.633 33.2143 16.7046 33.1619 16.7646 33.096L24.0321 25.2151C25.0444 24.1057 25.6122 22.6077 25.6122 21.0466C25.6122 19.4855 25.0444 17.9875 24.0321 16.8781Z" fill="black"/>
<defs>
<linearGradient id="paint0_linear_9_892" x1="31.0157" y1="0.804872" x2="1.28904" y2="48.4165" gradientUnits="userSpaceOnUse">
<stop stop-color="#BE9F60"/>
<stop offset="0.325" stop-color="#F6E486"/>
<stop offset="0.545" stop-color="#8A603C"/>
<stop offset="1" stop-color="#C39853"/>
</linearGradient>
</defs>
</svg>
