<svg width="37" height="39" viewBox="0 0 37 39" fill="none" xmlns="http://www.w3.org/2000/svg">
<path d="M15.4272 14.7329C15.3838 14.3678 15.2651 14.0158 15.0788 13.6995C14.8924 13.3832 14.6424 13.1096 14.3449 12.8963C14.0082 12.6526 13.6076 12.5145 13.1932 12.4992C12.7789 12.4839 12.3692 12.5921 12.0158 12.8102C11.5588 13.0915 11.1554 13.4527 10.8246 13.8767C10.4937 13.4527 10.0903 13.0916 9.63343 12.8102C9.27991 12.5921 8.87027 12.4839 8.45589 12.4992C8.04152 12.5145 7.64086 12.6526 7.30417 12.8963C7.00665 13.1097 6.7567 13.3833 6.57033 13.6995C6.38395 14.0158 6.26526 14.3678 6.22187 14.7329C6.21469 14.7859 6.20863 14.8383 6.20366 14.89C6.1538 15.4834 6.26081 16.0795 6.51384 16.6178C6.76687 17.156 7.1569 17.6173 7.64433 17.9548C8.69118 18.6946 9.82455 19.6614 10.4147 20.1786C10.5282 20.2784 10.6738 20.3334 10.8245 20.3334C10.9752 20.3334 11.1208 20.2784 11.2344 20.1786C11.8245 19.6614 12.9579 18.6946 14.0047 17.9548C14.4922 17.6173 14.8822 17.156 15.1353 16.6178C15.3883 16.0795 15.4953 15.4834 15.4454 14.89C15.4405 14.8383 15.4344 14.7859 15.4272 14.7329Z" fill="url(#paint0_linear_934_13104)"/>
<path d="M21.6496 30.971V2.07004C21.649 1.52125 21.4321 0.995125 21.0465 0.607067C20.661 0.219008 20.1383 0.000692569 19.5931 0H2.05658C1.51136 0.000723974 0.988681 0.21905 0.603153 0.607102C0.217625 0.995153 0.000719266 1.52126 0 2.07004V30.971C0.000719266 31.5197 0.217625 32.0458 0.603153 32.4339C0.988681 32.8219 1.51136 33.0403 2.05658 33.041H19.5927C20.138 33.0404 20.6608 32.8221 21.0464 32.4341C21.432 32.046 21.649 31.5198 21.6496 30.971ZM0.826887 30.971V2.07004C0.827356 1.74205 0.957014 1.42762 1.18744 1.19569C1.41786 0.963755 1.73024 0.833248 2.05611 0.832776H19.5927C19.9186 0.833248 20.231 0.963755 20.4614 1.19569C20.6918 1.42762 20.8215 1.74205 20.8219 2.07004V30.971C20.8215 31.299 20.6918 31.6134 20.4614 31.8453C20.231 32.0772 19.9186 32.2077 19.5927 32.2082H2.05658C1.73064 32.2078 1.41815 32.0774 1.18764 31.8454C0.95712 31.6135 0.827388 31.299 0.826887 30.971Z" fill="url(#paint1_linear_934_13104)"/>
<path d="M36.0425 12.6921L22.9466 5.14132C22.9109 5.12074 22.8705 5.10995 22.8294 5.11004C22.7883 5.11013 22.748 5.1211 22.7124 5.14184C22.6768 5.16257 22.6473 5.19236 22.6268 5.2282C22.6062 5.26405 22.5954 5.30469 22.5954 5.34607V5.54248C22.5955 5.65072 22.6239 5.75703 22.6779 5.85066C22.7319 5.94429 22.8094 6.02191 22.9027 6.0757L35.6323 13.415C35.8798 13.5576 36.0608 13.7933 36.1357 14.0703C36.2105 14.3473 36.173 14.6429 36.0314 14.8921L23.1073 37.6228C22.9658 37.8716 22.7321 38.0538 22.4573 38.1293C22.1826 38.2048 21.8892 38.1676 21.6417 38.0258L14.9992 34.1544C14.818 34.0488 14.6123 33.9932 14.4029 33.9932H13.9241C13.8737 33.9932 13.8247 34.01 13.7848 34.0408C13.7448 34.0717 13.716 34.115 13.7029 34.164C13.6899 34.213 13.6932 34.2649 13.7124 34.3118C13.7317 34.3587 13.7657 34.3979 13.8093 34.4233L21.2292 38.7474C21.6673 38.9994 22.1868 39.0661 22.6737 38.9328C23.1605 38.7995 23.5749 38.4771 23.8257 38.0365L36.7487 15.3056C36.9993 14.8648 37.0657 14.3418 36.9333 13.8517C36.8009 13.3616 36.4804 12.9445 36.0425 12.6921Z" fill="url(#paint2_linear_934_13104)"/>
<path d="M18.2803 33.9932C18.2124 33.9932 18.1464 34.0159 18.0927 34.0578C18.039 34.0996 18.0007 34.1582 17.9837 34.2244C17.9667 34.2906 17.972 34.3605 17.9987 34.4233C18.0255 34.4861 18.0722 34.5382 18.1316 34.5714L21.188 36.2913C21.442 36.4374 21.7432 36.4761 22.0256 36.3988C22.3079 36.3215 22.5482 36.1346 22.6937 35.8791L34.3529 15.3734C34.4249 15.2468 34.4714 15.1072 34.4897 14.9625C34.5081 14.8179 34.4979 14.671 34.4599 14.5303C34.4218 14.3895 34.3566 14.2577 34.268 14.1424C34.1793 14.027 34.0689 13.9304 33.9432 13.858L23.4729 7.8281C23.3848 7.77802 23.2852 7.75206 23.184 7.7528C23.0828 7.75354 22.9836 7.78094 22.8962 7.8323C22.8088 7.88365 22.7363 7.95715 22.6859 8.04548C22.6355 8.13381 22.609 8.23388 22.609 8.33573L22.5952 30.971C22.5952 31.7724 22.2789 32.541 21.7159 33.1077C21.1529 33.6744 20.3893 33.9927 19.5931 33.9927L18.2803 33.9932Z" fill="url(#paint3_linear_934_13104)"/>
<path d="M5.75169 5.95971C5.03791 4.59609 4.62494 3.04296 4.52389 2.63669C4.52587 2.54092 4.49499 2.44739 4.43645 2.37186C4.37791 2.29634 4.29529 2.24344 4.20252 2.22209C4.13714 2.20662 4.06909 2.20662 4.00371 2.22209C3.91092 2.24344 3.82828 2.29636 3.76974 2.37191C3.7112 2.44746 3.68033 2.54102 3.68234 2.63681C3.58129 3.04308 3.16855 4.59609 2.45454 5.95971C2.34622 5.96339 2.24367 6.00979 2.16902 6.08888C2.09437 6.16798 2.05359 6.27344 2.05548 6.38252C2.05737 6.4916 2.10178 6.59556 2.17913 6.67199C2.25648 6.74841 2.36057 6.79117 2.46896 6.79105H3.06549C3.1501 6.79139 3.23276 6.7655 3.30224 6.7169C3.37172 6.6683 3.42466 6.59935 3.45385 6.51942C3.48304 6.43948 3.48707 6.35244 3.4654 6.27012C3.44373 6.18779 3.39741 6.11418 3.33272 6.05928C3.39229 5.93746 3.4495 5.81544 3.50434 5.69322H4.70189C4.75704 5.81512 4.81425 5.93714 4.87351 6.05928C4.80881 6.11419 4.76249 6.18781 4.74082 6.27015C4.71915 6.35248 4.7232 6.43953 4.7524 6.51947C4.78161 6.59942 4.83456 6.66837 4.90406 6.71696C4.97356 6.76554 5.05624 6.79142 5.14086 6.79105H5.73739C5.84576 6.79114 5.94983 6.74836 6.02716 6.67192C6.10449 6.59549 6.14887 6.49153 6.15075 6.38246C6.15262 6.27339 6.11184 6.16795 6.03719 6.08886C5.96254 6.00978 5.86 5.96339 5.75169 5.95971ZM3.7561 4.99119C3.88611 4.65058 4.00159 4.32282 4.10312 4.01755C4.20476 4.32282 4.32047 4.65058 4.45013 4.99119H3.7561Z" fill="url(#paint4_linear_934_13104)"/>
<path d="M19.1803 26.2477H18.5838C18.4992 26.2473 18.4165 26.2732 18.3471 26.3218C18.2776 26.3704 18.2246 26.4394 18.1954 26.5193C18.1663 26.5993 18.1622 26.6863 18.1839 26.7686C18.2056 26.8509 18.2519 26.9246 18.3166 26.9795C18.257 27.1013 18.1998 27.2233 18.1448 27.3455H16.9474C16.8923 27.2235 16.835 27.1014 16.7757 26.9795C16.8404 26.9246 16.8867 26.8509 16.9083 26.7686C16.93 26.6863 16.926 26.5993 16.8968 26.5193C16.8676 26.4394 16.8147 26.3704 16.7452 26.3218C16.6757 26.2732 16.593 26.2473 16.5084 26.2477H15.9118C15.8034 26.2476 15.6993 26.2904 15.622 26.3668C15.5447 26.4433 15.5003 26.5472 15.4984 26.6563C15.4966 26.7654 15.5373 26.8708 15.612 26.9499C15.6866 27.029 15.7892 27.0753 15.8975 27.079C16.6114 28.4426 17.0242 29.9957 17.1253 30.4019C17.1233 30.4977 17.1542 30.5912 17.2127 30.6668C17.2713 30.7423 17.3539 30.7952 17.4467 30.8165C17.512 30.832 17.5801 30.832 17.6455 30.8165C17.7382 30.7952 17.8209 30.7423 17.8794 30.6668C17.9379 30.5912 17.9688 30.4977 17.9668 30.4019C18.0679 29.9955 18.4806 28.4426 19.1946 27.079C19.303 27.0753 19.4055 27.029 19.4802 26.9499C19.5548 26.8708 19.5956 26.7653 19.5937 26.6562C19.5918 26.5471 19.5474 26.4432 19.47 26.3668C19.3927 26.2903 19.2887 26.2476 19.1803 26.2477ZM17.5462 29.0212C17.4445 28.7159 17.3288 28.388 17.1992 28.0476H17.8932C17.7635 28.388 17.6477 28.7159 17.5462 29.0212Z" fill="url(#paint5_linear_934_13104)"/>
<defs>
<linearGradient id="paint0_linear_934_13104" x1="18.5" y1="0" x2="18.5" y2="39" gradientUnits="userSpaceOnUse">
<stop stop-color="#E7B960"/>
<stop offset="1" stop-color="#E7B960" stop-opacity="0"/>
</linearGradient>
<linearGradient id="paint1_linear_934_13104" x1="18.5" y1="0" x2="18.5" y2="39" gradientUnits="userSpaceOnUse">
<stop stop-color="#E7B960"/>
<stop offset="1" stop-color="#E7B960" stop-opacity="0"/>
</linearGradient>
<linearGradient id="paint2_linear_934_13104" x1="18.5" y1="0" x2="18.5" y2="39" gradientUnits="userSpaceOnUse">
<stop stop-color="#E7B960"/>
<stop offset="1" stop-color="#E7B960" stop-opacity="0"/>
</linearGradient>
<linearGradient id="paint3_linear_934_13104" x1="18.5" y1="0" x2="18.5" y2="39" gradientUnits="userSpaceOnUse">
<stop stop-color="#E7B960"/>
<stop offset="1" stop-color="#E7B960" stop-opacity="0"/>
</linearGradient>
<linearGradient id="paint4_linear_934_13104" x1="18.5" y1="0" x2="18.5" y2="39" gradientUnits="userSpaceOnUse">
<stop stop-color="#E7B960"/>
<stop offset="1" stop-color="#E7B960" stop-opacity="0"/>
</linearGradient>
<linearGradient id="paint5_linear_934_13104" x1="18.5" y1="0" x2="18.5" y2="39" gradientUnits="userSpaceOnUse">
<stop stop-color="#E7B960"/>
<stop offset="1" stop-color="#E7B960" stop-opacity="0"/>
</linearGradient>
</defs>
</svg>
