<svg width="9" height="11" viewBox="0 0 9 11" fill="none" xmlns="http://www.w3.org/2000/svg">
<path d="M0.313546 4.07507L0.641764 0.242037C0.635681 0.407648 0.727618 0.578961 0.918036 0.645663L3.42838 1.52595C3.65267 1.60425 3.87799 1.68412 4.1028 1.76657C5.0975 2.12843 6.08248 2.54603 6.9136 3.18515C7.07736 3.31188 7.2365 3.44837 7.38847 3.59402C8.16422 4.34332 8.69021 5.43953 8.67119 6.48018L8.63903 6.85137L8.33177 10.5113C8.38225 9.80491 8.17048 9.06288 7.79403 8.41474C7.59117 8.06654 7.34162 7.74428 7.05565 7.47045C6.91395 7.33382 6.76507 7.20637 6.61209 7.08607C5.58897 6.28699 4.3243 5.83395 3.09659 5.40397L0.58624 4.52368C0.378371 4.45039 0.28899 4.25272 0.314054 4.07249L0.313546 4.07507Z" fill="url(#paint0_linear_934_2602)"/>
<defs>
<linearGradient id="paint0_linear_934_2602" x1="9.2945" y1="6.60013" x2="-0.406056" y2="4.38867" gradientUnits="userSpaceOnUse">
<stop stop-color="#A0752B"/>
<stop offset="0.21" stop-color="#FDD551"/>
<stop offset="0.4" stop-color="#FFFFA6"/>
<stop offset="0.47" stop-color="#FDD551"/>
<stop offset="0.75" stop-color="#A0752B"/>
<stop offset="0.97" stop-color="#FDD551"/>
<stop offset="1" stop-color="#FDD551"/>
</linearGradient>
</defs>
</svg>
