<svg width="36" height="36" viewBox="0 0 36 36" fill="none" xmlns="http://www.w3.org/2000/svg">
<path d="M16.0801 32.726L25.6393 36L34.0085 27.6312L24.3832 24.4229L16.0801 32.726ZM20.3845 32.2149C19.8782 32.7213 19.0531 32.9404 18.5411 32.7043C18.0296 32.4681 18.0249 31.8665 18.5315 31.3602C19.0378 30.8539 19.8629 30.6347 20.3749 30.8709C20.8869 31.107 20.8908 31.7086 20.3845 32.2149ZM23.4714 33.2962C22.9651 33.8026 22.14 34.0217 21.628 33.7856C21.1165 33.5494 21.1118 32.9478 21.6184 32.4415C22.1252 31.9352 22.9498 31.716 23.4618 31.9522C23.9734 32.1883 23.9778 32.7899 23.4714 33.2962ZM29.6954 28.4546C30.2017 27.9483 31.0268 27.7291 31.5388 27.9653C32.0503 28.2014 32.0551 28.803 31.5488 29.3093C31.0426 29.8156 30.2174 30.0348 29.7054 29.7987C29.1934 29.5625 29.1891 28.9609 29.6954 28.4546ZM26.6176 27.4429C27.1239 26.9365 27.949 26.7174 28.461 26.9535C28.9725 27.1897 28.9773 27.7913 28.4706 28.2976C27.9643 28.8039 27.1392 29.0231 26.6272 28.7869C26.1157 28.5508 26.1113 27.9492 26.6176 27.4429ZM26.5397 32.9639C27.0513 33.2001 27.056 33.8016 26.5493 34.3079C26.043 34.8143 25.2179 35.0335 24.7059 34.7973C24.1939 34.5611 24.1896 33.9595 24.6959 33.4532C25.2026 32.9474 26.0277 32.7281 26.5397 32.9639ZM25.374 25.8718C25.8855 26.108 25.8903 26.7095 25.3836 27.2159C24.8773 27.7222 24.0522 27.9414 23.5402 27.7052C23.0287 27.469 23.0239 26.8675 23.5306 26.3611C24.0369 25.8548 24.8621 25.6361 25.374 25.8718Z" fill="url(#paint0_linear_934_8117)"/>
<path d="M34.1638 26.4746L31.0033 16.9928L21.5215 13.8319L24.682 23.3133L34.1638 26.4746ZM27.123 19.0398C27.4771 18.6857 28.1887 18.8227 28.7124 19.3465C29.236 19.8702 29.3735 20.5818 29.019 20.9358C28.665 21.2899 27.9534 21.1529 27.4297 20.6291C26.906 20.1054 26.7685 19.3938 27.123 19.0398Z" fill="url(#paint1_linear_934_8117)"/>
<path d="M11.4829 0L2.54297 4.4697L11.4828 8.93941L20.4222 4.4697L11.4829 0ZM11.4829 5.37659C10.7426 5.37659 10.1419 4.97034 10.1419 4.4697C10.1419 3.96864 10.7422 3.56282 11.4829 3.56282C12.2236 3.56282 12.8239 3.96907 12.8239 4.4697C12.8234 4.97076 12.2232 5.37659 11.4829 5.37659Z" fill="url(#paint2_linear_934_8117)"/>
<path d="M13.7799 17.1377C14.207 16.9803 14.5641 17.2295 14.6876 17.7071L20.0416 12.3531L21.1294 12.7158V5.39709L12.0547 9.93468V20.34L12.972 19.4226C12.8785 19.2569 12.8224 19.042 12.8224 18.7876C12.8224 18.0712 13.2514 17.3326 13.7799 17.1377ZM19.6193 7.37967C20.1482 7.18479 20.5766 7.60718 20.5766 8.32309C20.5766 9.039 20.1482 9.7776 19.6193 9.97248C19.0904 10.1674 18.6619 9.74497 18.6619 9.02906C18.6618 8.31307 19.0904 7.57456 19.6193 7.37967ZM16.8911 12.0638C17.4201 11.8689 17.8485 12.2913 17.8485 13.0072C17.8485 13.7231 17.4201 14.4617 16.8911 14.6566C16.3622 14.8515 15.9338 14.4291 15.9338 13.7132C15.9338 12.9973 16.3626 12.2587 16.8911 12.0638ZM12.8224 11.9085C12.8224 11.1926 13.2508 10.454 13.7798 10.2591C14.3087 10.0642 14.7371 10.4866 14.7371 11.2025C14.7371 11.9185 14.3087 12.657 13.7798 12.8519C13.2509 13.0468 12.8224 12.6245 12.8224 11.9085Z" fill="url(#paint3_linear_934_8117)"/>
<path d="M1.83398 17.2321L10.7808 21.6139L10.9091 21.4857V9.93468L1.83398 5.39709V17.2321ZM9.16181 17.1377C9.69073 17.3326 10.1192 18.0712 10.1192 18.7871C10.1192 19.503 9.69073 19.9254 9.16181 19.7305C8.63288 19.5356 8.20446 18.797 8.20446 18.0811C8.20446 17.3652 8.63339 16.9428 9.16181 17.1377ZM6.37157 11.919C6.90049 12.1138 7.32892 12.8523 7.32892 13.5683C7.32892 14.2843 6.90049 14.7066 6.37157 14.5118C5.84264 14.3169 5.41422 13.5783 5.41422 12.8624C5.41413 12.1465 5.84307 11.7241 6.37157 11.919ZM3.49985 7.37967C4.02878 7.57456 4.45721 8.31307 4.45721 9.02906C4.45721 9.74497 4.02878 10.1674 3.49985 9.97248C2.97093 9.7776 2.5425 9.03909 2.5425 8.32309C2.5425 7.60718 2.97093 7.18479 3.49985 7.37967Z" fill="url(#paint4_linear_934_8117)"/>
<path d="M20.3653 13.9868L11.9961 22.3552L15.2705 31.9153L23.5736 23.6114L20.3653 13.9868ZM16.7912 28.7626C16.2848 29.2689 15.6829 29.2646 15.4471 28.7526C15.2114 28.2406 15.4301 27.4155 15.9364 26.9091C16.4428 26.4028 17.0448 26.4071 17.2805 26.9187C17.5163 27.4303 17.2975 28.2563 16.7912 28.7626ZM19.5836 18.8406C19.0773 19.3469 18.4753 19.3425 18.2396 18.831C18.0034 18.3195 18.2226 17.4939 18.7289 16.9876C19.2352 16.4812 19.8372 16.4857 20.073 16.9972C20.3092 17.5091 20.0899 18.3343 19.5836 18.8406Z" fill="url(#paint5_linear_934_8117)"/>
<defs>
<linearGradient id="paint0_linear_934_8117" x1="25.0443" y1="24.4229" x2="25.0443" y2="36" gradientUnits="userSpaceOnUse">
<stop stop-color="#E7B960"/>
<stop offset="1" stop-color="#E7B960" stop-opacity="0"/>
</linearGradient>
<linearGradient id="paint1_linear_934_8117" x1="27.8426" y1="13.8319" x2="27.8426" y2="26.4746" gradientUnits="userSpaceOnUse">
<stop stop-color="#E7B960"/>
<stop offset="1" stop-color="#E7B960" stop-opacity="0"/>
</linearGradient>
<linearGradient id="paint2_linear_934_8117" x1="11.4826" y1="0" x2="11.4826" y2="8.93941" gradientUnits="userSpaceOnUse">
<stop stop-color="#E7B960"/>
<stop offset="1" stop-color="#E7B960" stop-opacity="0"/>
</linearGradient>
<linearGradient id="paint3_linear_934_8117" x1="16.5921" y1="5.39709" x2="16.5921" y2="20.34" gradientUnits="userSpaceOnUse">
<stop stop-color="#E7B960"/>
<stop offset="1" stop-color="#E7B960" stop-opacity="0"/>
</linearGradient>
<linearGradient id="paint4_linear_934_8117" x1="6.37152" y1="5.39709" x2="6.37152" y2="21.6139" gradientUnits="userSpaceOnUse">
<stop stop-color="#E7B960"/>
<stop offset="1" stop-color="#E7B960" stop-opacity="0"/>
</linearGradient>
<linearGradient id="paint5_linear_934_8117" x1="17.7848" y1="13.9868" x2="17.7848" y2="31.9153" gradientUnits="userSpaceOnUse">
<stop stop-color="#E7B960"/>
<stop offset="1" stop-color="#E7B960" stop-opacity="0"/>
</linearGradient>
</defs>
</svg>
