<svg width="30" height="30" viewBox="0 0 30 30" fill="none" xmlns="http://www.w3.org/2000/svg">
<path d="M15.0003 16.8252C16.0082 16.8252 16.8252 16.0082 16.8252 15.0003C16.8252 13.9924 16.0082 13.1753 15.0003 13.1753C13.9924 13.1753 13.1753 13.9924 13.1753 15.0003C13.1753 16.0082 13.9924 16.8252 15.0003 16.8252Z" fill="url(#paint0_linear_934_4944)"/>
<path fill-rule="evenodd" clip-rule="evenodd" d="M14.7321 5.24591V2.81542C12.706 2.85908 10.8017 3.39723 9.13498 4.31392L10.3532 6.41777C11.6612 5.70799 13.1497 5.28861 14.7321 5.24591Z" fill="url(#paint1_linear_934_4944)"/>
<path fill-rule="evenodd" clip-rule="evenodd" d="M19.6467 6.41763L20.8594 4.31088C19.1941 3.39598 17.2917 2.85901 15.2679 2.81542V5.24591C16.8503 5.28861 18.3387 5.70799 19.6467 6.41763Z" fill="url(#paint2_linear_934_4944)"/>
<path fill-rule="evenodd" clip-rule="evenodd" d="M25.4201 8.67532C24.9117 7.83959 24.3057 7.06996 23.6179 6.38212C22.9291 5.69332 22.1582 5.0866 21.3212 4.57787L20.1083 6.68476C20.7602 7.08608 21.3612 7.56187 21.8997 8.10029C22.4379 8.63857 22.9136 9.23934 23.3148 9.89091L25.4201 8.67532Z" fill="url(#paint3_linear_934_4944)"/>
<path fill-rule="evenodd" clip-rule="evenodd" d="M27.1847 14.7332C27.1411 12.7079 26.6036 10.8042 25.6877 9.13789L23.5824 10.3535C24.2922 11.6617 24.7116 13.1505 24.7541 14.7332H27.1847Z" fill="url(#paint4_linear_934_4944)"/>
<path fill-rule="evenodd" clip-rule="evenodd" d="M25.6877 20.8622C26.6035 19.1959 27.1411 17.2922 27.1847 15.2669H24.7541C24.7116 16.8496 24.2922 18.3383 23.5824 19.6466L25.6877 20.8622Z" fill="url(#paint5_linear_934_4944)"/>
<path fill-rule="evenodd" clip-rule="evenodd" d="M25.42 21.3248L23.3148 20.1092C22.9136 20.7607 22.4379 21.3615 21.8997 21.8997C21.3612 22.4381 20.7602 22.9139 20.1083 23.3152L21.3212 25.4222C22.1582 24.9134 22.9291 24.3067 23.6179 23.6179C24.3057 22.93 24.9117 22.1604 25.42 21.3248Z" fill="url(#paint6_linear_934_4944)"/>
<path fill-rule="evenodd" clip-rule="evenodd" d="M20.8594 25.6891L19.6467 23.5824C18.3387 24.292 16.8503 24.7114 15.2679 24.7541V27.1846C17.2917 27.141 19.1941 26.604 20.8594 25.6891Z" fill="url(#paint7_linear_934_4944)"/>
<path fill-rule="evenodd" clip-rule="evenodd" d="M14.7321 24.7541C13.1497 24.7114 11.6613 24.292 10.3532 23.5823L9.13498 25.6861C10.8017 26.6028 12.706 27.1409 14.7321 27.1846V24.7541Z" fill="url(#paint8_linear_934_4944)"/>
<path fill-rule="evenodd" clip-rule="evenodd" d="M8.10029 21.8997C7.56194 21.3614 7.08622 20.7604 6.68497 20.1087L4.5796 21.3241C5.08798 22.16 5.69408 22.9298 6.38212 23.6179C7.0692 24.3049 7.83793 24.9104 8.67248 25.4183L9.89063 23.3146C9.2392 22.9134 8.6385 22.4379 8.10029 21.8997Z" fill="url(#paint9_linear_934_4944)"/>
<path fill-rule="evenodd" clip-rule="evenodd" d="M6.41783 19.647C5.70793 18.3386 5.2884 16.8498 5.24591 15.2669H2.81535C2.85888 17.2923 3.39646 19.196 4.31247 20.8624L6.41783 19.647Z" fill="url(#paint10_linear_934_4944)"/>
<path fill-rule="evenodd" clip-rule="evenodd" d="M5.24591 14.7332C5.2884 13.1503 5.70786 11.6614 6.41783 10.353L4.31247 9.13761C3.39646 10.804 2.85888 12.7078 2.81535 14.7332H5.24591Z" fill="url(#paint11_linear_934_4944)"/>
<path fill-rule="evenodd" clip-rule="evenodd" d="M8.10029 8.10029C8.6385 7.56215 9.2392 7.08657 9.89063 6.68538L8.67241 4.58175C7.83786 5.08964 7.0692 5.69505 6.38212 6.38212C5.69408 7.07016 5.08798 7.84008 4.57953 8.67601L6.68497 9.89139C7.08622 9.23962 7.56194 8.63864 8.10029 8.10029Z" fill="url(#paint12_linear_934_4944)"/>
<path fill-rule="evenodd" clip-rule="evenodd" d="M30 15C30 6.71569 23.2843 0 15 0C6.71569 0 0 6.71569 0 15C0 23.2843 6.71569 30 15 30C23.2843 30 30 23.2843 30 15ZM15 2.27679C18.5134 2.27679 21.6942 3.7009 23.9966 6.00336C26.2991 8.30576 27.7232 11.4866 27.7232 15C27.7232 18.5134 26.2991 21.6942 23.9966 23.9966C21.6952 26.2981 18.5162 27.722 15.0047 27.7232L15 27.7233L14.9953 27.7232C11.4838 27.722 8.30479 26.2981 6.00336 23.9966C3.7009 21.6942 2.27679 18.5134 2.27679 15C2.27679 11.4866 3.7009 8.30576 6.00336 6.00336C8.30576 3.7009 11.4866 2.27679 15 2.27679Z" fill="url(#paint13_linear_934_4944)"/>
<path fill-rule="evenodd" clip-rule="evenodd" d="M14.7321 13.7364L11.4285 10.4329C11.4557 10.1213 11.3502 9.80046 11.1118 9.56205C10.6839 9.13408 9.99001 9.13408 9.56205 9.56205C9.13408 9.99001 9.13408 10.6839 9.56205 11.1118C9.78004 11.3298 10.067 11.4367 10.3527 11.4326L13.7234 14.8032C13.8047 14.2715 14.2103 13.8464 14.7321 13.7364Z" fill="url(#paint14_linear_934_4944)"/>
<path fill-rule="evenodd" clip-rule="evenodd" d="M20.438 11.1118C20.8659 10.6839 20.8659 9.99001 20.438 9.56205C20.01 9.13408 19.3161 9.13408 18.8882 9.56205C18.6702 9.78004 18.5633 10.067 18.5674 10.3527L15.1968 13.7234C15.7285 13.8047 16.1536 14.2103 16.2636 14.7321L19.5671 11.4285C19.8787 11.4557 20.1995 11.3502 20.438 11.1118Z" fill="url(#paint15_linear_934_4944)"/>
<path fill-rule="evenodd" clip-rule="evenodd" d="M19.6473 18.5674L16.2766 15.1968C16.1953 15.7285 15.7897 16.1536 15.2679 16.2636L18.5715 19.5671C18.5443 19.8787 18.6498 20.1995 18.8882 20.438C19.3161 20.8659 20.01 20.8659 20.438 20.438C20.8659 20.01 20.8659 19.3161 20.438 18.8882C20.22 18.6702 19.933 18.5633 19.6473 18.5674Z" fill="url(#paint16_linear_934_4944)"/>
<path fill-rule="evenodd" clip-rule="evenodd" d="M14.8032 16.2766C14.2715 16.1953 13.8464 15.7897 13.7364 15.2679L10.4329 18.5715C10.1213 18.5443 9.80046 18.6498 9.56205 18.8882C9.13408 19.3161 9.13408 20.01 9.56205 20.438C9.99001 20.8659 10.6839 20.8659 11.1118 20.438C11.3298 20.22 11.4367 19.933 11.4326 19.6473L14.8032 16.2766Z" fill="url(#paint17_linear_934_4944)"/>
<defs>
<linearGradient id="paint0_linear_934_4944" x1="15" y1="0" x2="15" y2="30" gradientUnits="userSpaceOnUse">
<stop stop-color="#E7B960"/>
<stop offset="1" stop-color="#E7B960" stop-opacity="0"/>
</linearGradient>
<linearGradient id="paint1_linear_934_4944" x1="15" y1="0" x2="15" y2="30" gradientUnits="userSpaceOnUse">
<stop stop-color="#E7B960"/>
<stop offset="1" stop-color="#E7B960" stop-opacity="0"/>
</linearGradient>
<linearGradient id="paint2_linear_934_4944" x1="15" y1="0" x2="15" y2="30" gradientUnits="userSpaceOnUse">
<stop stop-color="#E7B960"/>
<stop offset="1" stop-color="#E7B960" stop-opacity="0"/>
</linearGradient>
<linearGradient id="paint3_linear_934_4944" x1="15" y1="0" x2="15" y2="30" gradientUnits="userSpaceOnUse">
<stop stop-color="#E7B960"/>
<stop offset="1" stop-color="#E7B960" stop-opacity="0"/>
</linearGradient>
<linearGradient id="paint4_linear_934_4944" x1="15" y1="0" x2="15" y2="30" gradientUnits="userSpaceOnUse">
<stop stop-color="#E7B960"/>
<stop offset="1" stop-color="#E7B960" stop-opacity="0"/>
</linearGradient>
<linearGradient id="paint5_linear_934_4944" x1="15" y1="0" x2="15" y2="30" gradientUnits="userSpaceOnUse">
<stop stop-color="#E7B960"/>
<stop offset="1" stop-color="#E7B960" stop-opacity="0"/>
</linearGradient>
<linearGradient id="paint6_linear_934_4944" x1="15" y1="0" x2="15" y2="30" gradientUnits="userSpaceOnUse">
<stop stop-color="#E7B960"/>
<stop offset="1" stop-color="#E7B960" stop-opacity="0"/>
</linearGradient>
<linearGradient id="paint7_linear_934_4944" x1="15" y1="0" x2="15" y2="30" gradientUnits="userSpaceOnUse">
<stop stop-color="#E7B960"/>
<stop offset="1" stop-color="#E7B960" stop-opacity="0"/>
</linearGradient>
<linearGradient id="paint8_linear_934_4944" x1="15" y1="0" x2="15" y2="30" gradientUnits="userSpaceOnUse">
<stop stop-color="#E7B960"/>
<stop offset="1" stop-color="#E7B960" stop-opacity="0"/>
</linearGradient>
<linearGradient id="paint9_linear_934_4944" x1="15" y1="0" x2="15" y2="30" gradientUnits="userSpaceOnUse">
<stop stop-color="#E7B960"/>
<stop offset="1" stop-color="#E7B960" stop-opacity="0"/>
</linearGradient>
<linearGradient id="paint10_linear_934_4944" x1="15" y1="0" x2="15" y2="30" gradientUnits="userSpaceOnUse">
<stop stop-color="#E7B960"/>
<stop offset="1" stop-color="#E7B960" stop-opacity="0"/>
</linearGradient>
<linearGradient id="paint11_linear_934_4944" x1="15" y1="0" x2="15" y2="30" gradientUnits="userSpaceOnUse">
<stop stop-color="#E7B960"/>
<stop offset="1" stop-color="#E7B960" stop-opacity="0"/>
</linearGradient>
<linearGradient id="paint12_linear_934_4944" x1="15" y1="0" x2="15" y2="30" gradientUnits="userSpaceOnUse">
<stop stop-color="#E7B960"/>
<stop offset="1" stop-color="#E7B960" stop-opacity="0"/>
</linearGradient>
<linearGradient id="paint13_linear_934_4944" x1="15" y1="0" x2="15" y2="30" gradientUnits="userSpaceOnUse">
<stop stop-color="#E7B960"/>
<stop offset="1" stop-color="#E7B960" stop-opacity="0"/>
</linearGradient>
<linearGradient id="paint14_linear_934_4944" x1="15" y1="0" x2="15" y2="30" gradientUnits="userSpaceOnUse">
<stop stop-color="#E7B960"/>
<stop offset="1" stop-color="#E7B960" stop-opacity="0"/>
</linearGradient>
<linearGradient id="paint15_linear_934_4944" x1="15" y1="0" x2="15" y2="30" gradientUnits="userSpaceOnUse">
<stop stop-color="#E7B960"/>
<stop offset="1" stop-color="#E7B960" stop-opacity="0"/>
</linearGradient>
<linearGradient id="paint16_linear_934_4944" x1="15" y1="0" x2="15" y2="30" gradientUnits="userSpaceOnUse">
<stop stop-color="#E7B960"/>
<stop offset="1" stop-color="#E7B960" stop-opacity="0"/>
</linearGradient>
<linearGradient id="paint17_linear_934_4944" x1="15" y1="0" x2="15" y2="30" gradientUnits="userSpaceOnUse">
<stop stop-color="#E7B960"/>
<stop offset="1" stop-color="#E7B960" stop-opacity="0"/>
</linearGradient>
</defs>
</svg>
