<svg width="10" height="198" viewBox="0 0 10 198" fill="none" xmlns="http://www.w3.org/2000/svg">
<path d="M7.228 2.26605C6.932 2.26605 6.668 2.33805 6.436 2.48205C6.212 2.63405 6.016 2.81805 5.848 3.03405C5.68 3.25805 5.48 3.55805 5.248 3.93405C4.992 4.34205 4.772 4.66205 4.588 4.89405C4.404 5.13405 4.176 5.33405 3.904 5.49405C3.64 5.66205 3.328 5.74605 2.968 5.74605C2.56 5.74605 2.196 5.63805 1.876 5.42205C1.556 5.21405 1.304 4.91405 1.12 4.52205C0.944 4.13805 0.856 3.69805 0.856 3.20205C0.856 2.86605 0.9 2.51805 0.988 2.15805C1.076 1.80605 1.184 1.53805 1.312 1.35405C1.36 1.28205 1.436 1.24205 1.54 1.23405L3.364 1.16205L3.376 1.16205C3.408 1.16205 3.424 1.18205 3.424 1.22205C3.432 1.26205 3.42 1.28605 3.388 1.29405C2.724 1.55805 2.18 1.85805 1.756 2.19405C1.332 2.53805 1.12 2.97405 1.12 3.50205C1.12 3.84605 1.212 4.13405 1.396 4.36605C1.588 4.59805 1.904 4.71405 2.344 4.71405C2.696 4.71405 3.004 4.63405 3.268 4.47405C3.532 4.32205 3.752 4.13005 3.928 3.89805C4.104 3.67405 4.32 3.36605 4.576 2.97405C4.824 2.59005 5.032 2.29005 5.2 2.07405C5.376 1.85805 5.588 1.67405 5.836 1.52205C6.092 1.37005 6.388 1.29405 6.724 1.29405C7.14 1.29405 7.492 1.41005 7.78 1.64205C8.068 1.87405 8.28 2.17405 8.416 2.54205C8.56 2.91805 8.632 3.31005 8.632 3.71805C8.632 3.99005 8.604 4.26205 8.548 4.53405C8.5 4.80605 8.436 5.03405 8.356 5.21805C8.332 5.29005 8.3 5.33805 8.26 5.36205C8.228 5.38605 8.184 5.39805 8.128 5.39805L6.496 5.43405C6.472 5.43405 6.452 5.41005 6.436 5.36205C6.428 5.32205 6.44 5.29805 6.472 5.29005C6.96 5.13005 7.4 4.91405 7.792 4.64205C8.192 4.37805 8.392 3.97805 8.392 3.44205C8.392 3.08205 8.288 2.79405 8.08 2.57805C7.872 2.37005 7.588 2.26605 7.228 2.26605ZM8.632 19.0881C8.632 19.4481 8.6 19.8201 8.536 20.2041C8.472 20.5961 8.384 20.9041 8.272 21.1281C8.248 21.2001 8.216 21.2441 8.176 21.2601C8.144 21.2841 8.084 21.3001 7.996 21.3081L6.436 21.4521C6.412 21.4521 6.396 21.4321 6.388 21.3921C6.38 21.3521 6.392 21.3281 6.424 21.3201C7.048 21.0881 7.524 20.7361 7.852 20.2641C8.18 19.8001 8.344 19.2521 8.344 18.6201C8.344 17.7881 8.052 17.1361 7.468 16.6641C6.884 16.1921 6.1 15.9561 5.116 15.9561C4.38 15.9561 3.704 16.0841 3.088 16.3401C2.472 16.6041 1.984 16.9641 1.624 17.4201C1.264 17.8841 1.084 18.4001 1.084 18.9681C1.084 20.0481 1.756 20.8681 3.1 21.4281C3.132 21.4361 3.144 21.4601 3.136 21.5001C3.128 21.5481 3.112 21.5721 3.088 21.5721L1.552 21.3921C1.456 21.3761 1.392 21.3561 1.36 21.3321C1.336 21.3161 1.308 21.2721 1.276 21.2001C0.995999 20.5041 0.855999 19.7641 0.855999 18.9801C0.855999 18.0041 1.048 17.1921 1.432 16.5441C1.824 15.8961 2.32 15.4161 2.92 15.1041C3.52 14.8001 4.144 14.6481 4.792 14.6481C5.544 14.6481 6.212 14.8521 6.796 15.2601C7.38 15.6761 7.832 16.2241 8.152 16.9041C8.472 17.5841 8.632 18.3121 8.632 19.0881ZM1.144 38.1554C1.144 38.1794 1.12 38.1914 1.072 38.1914C1.024 38.1914 0.999998 38.1794 0.999998 38.1554L0.999998 36.2234C0.999998 36.0394 1.332 35.6954 1.996 35.1914C2.668 34.6954 3.604 34.0874 4.804 33.3674C4.78 33.2394 4.768 33.1074 4.768 32.9714C4.768 32.6754 4.772 32.4674 4.78 32.3474L1.972 32.3474C1.724 32.3474 1.544 32.3674 1.432 32.4074C1.32 32.4554 1.244 32.5394 1.204 32.6594C1.164 32.7874 1.144 32.9874 1.144 33.2594C1.144 33.2754 1.12 33.2834 1.072 33.2834C1.024 33.2834 0.999999 33.2754 0.999999 33.2594C0.999999 32.9954 1.004 32.7914 1.012 32.6474L1.024 31.7594L1.012 30.8954C1.004 30.7434 0.999999 30.5354 0.999999 30.2714C0.999999 30.2474 1.024 30.2354 1.072 30.2354C1.12 30.2354 1.144 30.2474 1.144 30.2714C1.144 30.5434 1.164 30.7394 1.204 30.8594C1.244 30.9874 1.32 31.0754 1.432 31.1234C1.552 31.1714 1.732 31.1954 1.972 31.1954L7.528 31.1954C7.768 31.1954 7.944 31.1714 8.056 31.1234C8.168 31.0834 8.244 30.9994 8.284 30.8714C8.332 30.7434 8.356 30.5474 8.356 30.2834C8.356 30.2674 8.38 30.2594 8.428 30.2594C8.476 30.2594 8.5 30.2674 8.5 30.2834L8.488 30.9074C8.472 31.2594 8.464 31.5434 8.464 31.7594C8.464 31.9994 8.476 32.2514 8.5 32.5154C8.508 32.6114 8.516 32.7274 8.524 32.8634C8.532 32.9994 8.536 33.1474 8.536 33.3074C8.536 34.0194 8.404 34.5674 8.14 34.9514C7.876 35.3354 7.504 35.5274 7.024 35.5274C6.648 35.5274 6.292 35.4154 5.956 35.1914C5.62 34.9674 5.348 34.6754 5.14 34.3154C4.132 34.9714 3.34 35.5194 2.764 35.9594C2.196 36.4074 1.784 36.8034 1.528 37.1474C1.272 37.4914 1.144 37.8274 1.144 38.1554ZM5.116 32.3474C5.084 32.5394 5.068 32.7714 5.068 33.0434C5.068 33.5234 5.176 33.8594 5.392 34.0514C5.608 34.2434 6.004 34.3394 6.58 34.3394C7.228 34.3394 7.676 34.2314 7.924 34.0154C8.18 33.7994 8.308 33.4954 8.308 33.1034C8.308 32.8154 8.252 32.6154 8.14 32.5034C8.028 32.3994 7.816 32.3474 7.504 32.3474L5.116 32.3474ZM0.855998 49.5621C0.855998 48.8181 1.028 48.1541 1.372 47.5701C1.724 46.9941 2.196 46.5461 2.788 46.2261C3.388 45.9141 4.04 45.7581 4.744 45.7581C5.568 45.7581 6.272 45.9661 6.856 46.3821C7.448 46.7981 7.892 47.3301 8.188 47.9781C8.484 48.6341 8.632 49.3021 8.632 49.9821C8.632 50.7421 8.452 51.4101 8.092 51.9861C7.74 52.5621 7.272 53.0021 6.688 53.3061C6.104 53.6181 5.484 53.7741 4.828 53.7741C4.1 53.7741 3.432 53.5821 2.824 53.1981C2.216 52.8141 1.736 52.2981 1.384 51.6501C1.032 51.0101 0.855998 50.3141 0.855998 49.5621ZM1.144 49.9701C1.144 50.4501 1.272 50.8781 1.528 51.2541C1.792 51.6381 2.176 51.9381 2.68 52.1541C3.184 52.3781 3.784 52.4901 4.48 52.4901C5.216 52.4901 5.876 52.3661 6.46 52.1181C7.044 51.8781 7.5 51.5301 7.828 51.0741C8.156 50.6261 8.32 50.0981 8.32 49.4901C8.32 48.7141 8.04 48.1101 7.48 47.6781C6.928 47.2541 6.16 47.0421 5.176 47.0421C4.416 47.0421 3.728 47.1661 3.112 47.4141C2.496 47.6701 2.012 48.0181 1.66 48.4581C1.316 48.9061 1.144 49.4101 1.144 49.9701ZM2.02 64.4856C1.804 64.4856 1.648 64.5016 1.552 64.5336C1.456 64.5736 1.392 64.6456 1.36 64.7496C1.328 64.8536 1.312 65.0216 1.312 65.2536L1.312 65.9736C1.312 66.5416 1.468 67.0216 1.78 67.4136C2.1 67.8056 2.528 68.0656 3.064 68.1936C3.088 68.2016 3.096 68.2256 3.088 68.2656C3.088 68.3056 3.076 68.3256 3.052 68.3256C2.3 68.2536 1.676 68.2176 1.18 68.2176C1.116 68.2176 1.068 68.2056 1.036 68.1816C1.012 68.1576 0.999997 68.1096 0.999997 68.0376L0.999997 62.4216C0.999997 62.4056 1.024 62.3976 1.072 62.3976C1.12 62.3976 1.144 62.4056 1.144 62.4216C1.144 62.6936 1.164 62.8896 1.204 63.0096C1.244 63.1376 1.32 63.2216 1.432 63.2616C1.552 63.3096 1.732 63.3336 1.972 63.3336L7.528 63.3336C7.768 63.3336 7.944 63.3096 8.056 63.2616C8.168 63.2216 8.244 63.1376 8.284 63.0096C8.332 62.8816 8.356 62.6856 8.356 62.4216C8.356 62.4056 8.38 62.3976 8.428 62.3976C8.476 62.3976 8.5 62.4056 8.5 62.4216L8.488 63.0336C8.472 63.3856 8.464 63.6736 8.464 63.8976C8.464 64.1376 8.472 64.4336 8.488 64.7856L8.5 65.3856C8.5 65.4096 8.476 65.4216 8.428 65.4216C8.38 65.4216 8.356 65.4096 8.356 65.3856C8.356 65.1216 8.332 64.9256 8.284 64.7976C8.244 64.6776 8.164 64.5936 8.044 64.5456C7.932 64.5056 7.756 64.4856 7.516 64.4856L2.02 64.4856ZM2.02 78.6578C1.804 78.6578 1.648 78.6738 1.552 78.7058C1.456 78.7458 1.392 78.8178 1.36 78.9218C1.328 79.0258 1.312 79.1938 1.312 79.4258L1.312 80.1458C1.312 80.7138 1.468 81.1938 1.78 81.5858C2.1 81.9778 2.528 82.2378 3.064 82.3658C3.088 82.3738 3.096 82.3978 3.088 82.4378C3.088 82.4778 3.076 82.4978 3.052 82.4978C2.3 82.4258 1.676 82.3898 1.18 82.3898C1.116 82.3898 1.068 82.3778 1.036 82.3538C1.012 82.3298 0.999996 82.2818 0.999996 82.2098L0.999997 76.5938C0.999997 76.5778 1.024 76.5698 1.072 76.5698C1.12 76.5698 1.144 76.5778 1.144 76.5938C1.144 76.8658 1.164 77.0618 1.204 77.1818C1.244 77.3098 1.32 77.3938 1.432 77.4338C1.552 77.4818 1.732 77.5058 1.972 77.5058L7.528 77.5058C7.768 77.5058 7.944 77.4818 8.056 77.4338C8.168 77.3938 8.244 77.3098 8.284 77.1818C8.332 77.0538 8.356 76.8578 8.356 76.5938C8.356 76.5778 8.38 76.5698 8.428 76.5698C8.476 76.5698 8.5 76.5778 8.5 76.5938L8.488 77.2058C8.472 77.5578 8.464 77.8458 8.464 78.0698C8.464 78.3098 8.472 78.6058 8.488 78.9578L8.5 79.5578C8.5 79.5818 8.476 79.5938 8.428 79.5938C8.38 79.5938 8.356 79.5818 8.356 79.5578C8.356 79.2938 8.332 79.0978 8.284 78.9698C8.244 78.8498 8.164 78.7658 8.044 78.7178C7.932 78.6778 7.756 78.6578 7.516 78.6578L2.02 78.6578Z" fill="#E7B960"/>
<rect x="4" y="101" width="3" height="116" fill="#E7B960"/>
</svg>
