<svg width="46" height="46" viewBox="0 0 46 46" fill="none" xmlns="http://www.w3.org/2000/svg">
<path d="M14.0061 40.4712C13.1977 40.4712 12.5164 40.1942 11.9623 39.64C11.4081 39.0859 11.1311 38.4046 11.1311 37.5962C11.1311 36.7878 11.4081 36.1065 11.9623 35.5524C12.5164 34.9983 13.1977 34.7212 14.0061 34.7212C14.8145 34.7212 15.4958 34.9983 16.0499 35.5524C16.604 36.1065 16.8811 36.7878 16.8811 37.5962C16.8811 38.4046 16.604 39.0859 16.0499 39.64C15.4958 40.1942 14.8145 40.4712 14.0061 40.4712ZM31.9933 40.4712C31.1848 40.4712 30.5036 40.1942 29.9494 39.64C29.3953 39.0859 29.1183 38.4046 29.1183 37.5962C29.1183 36.7878 29.3953 36.1065 29.9494 35.5524C30.5036 34.9983 31.1848 34.7212 31.9933 34.7212C32.8017 34.7212 33.483 34.9983 34.0371 35.5524C34.5912 36.1065 34.8683 36.7878 34.8683 37.5962C34.8683 38.4046 34.5912 39.0859 34.0371 39.64C33.483 40.1942 32.8017 40.4712 31.9933 40.4712ZM11.2712 10.5417L16.3872 21.3045H29.1035C29.3247 21.3045 29.5213 21.2492 29.6933 21.1387C29.8653 21.0281 30.0127 20.8745 30.1356 20.678L35.1484 11.5737C35.2958 11.3035 35.3081 11.0639 35.1853 10.855C35.0624 10.6462 34.8535 10.5417 34.5587 10.5417H11.2712ZM10.3349 8.62504H35.2885C36.1215 8.62504 36.7481 8.96476 37.1683 9.64418C37.5885 10.3236 37.6106 11.0233 37.2346 11.7433L31.7574 21.7247C31.4797 22.1916 31.1191 22.5577 30.6755 22.8231C30.232 23.0885 29.7449 23.2212 29.2141 23.2212H15.5247L13.1952 27.4968C12.9986 27.7917 12.9925 28.1112 13.1768 28.4552C13.361 28.7992 13.6375 28.9712 14.0061 28.9712H33.9099C34.1827 28.9712 34.4106 29.0627 34.5937 29.2458C34.7768 29.4289 34.8683 29.6568 34.8683 29.9295C34.8683 30.2023 34.7768 30.4302 34.5937 30.6133C34.4106 30.7964 34.1827 30.8879 33.9099 30.8879H14.0061C12.888 30.8879 12.0538 30.4167 11.5034 29.4744C10.9529 28.532 10.9394 27.5853 11.4628 26.6343L14.3452 21.4962L7.29772 6.70838H4.79134C4.51857 6.70838 4.29064 6.61684 4.10757 6.43377C3.92453 6.25072 3.83301 6.02282 3.83301 5.75004C3.83301 5.47727 3.92453 5.24936 4.10757 5.06632C4.29068 4.88325 4.5186 4.79171 4.79134 4.79171H7.53735C7.83958 4.79171 8.11355 4.86911 8.35926 5.02391C8.60501 5.17872 8.79547 5.39497 8.93062 5.67266L10.3349 8.62504Z" fill="#D1A757"/>
</svg>
