<svg width="526" height="520" viewBox="0 0 526 520" fill="none" xmlns="http://www.w3.org/2000/svg">
<rect width="201.053" height="304.173" rx="15" transform="matrix(-0.995546 0.0942785 0.0942785 0.995546 477.732 54.0721)" fill="url(#paint0_linear_45_645)"/>
<path d="M336.72 167.678C339.681 163.824 343.324 160.652 347.439 158.343C351.555 156.034 356.062 154.635 360.704 154.223C365.347 153.812 370.032 154.398 374.493 155.947C378.953 157.496 383.102 159.978 386.701 163.251C389.569 159.264 393.152 155.95 397.239 153.502C401.327 151.055 405.836 149.524 410.504 148.999C415.172 148.474 419.904 148.966 424.422 150.445C428.94 151.925 433.155 154.362 436.818 157.615C440.48 160.867 443.518 164.869 445.753 169.387C447.988 173.904 449.375 178.845 449.832 183.921C450.29 188.997 449.809 194.105 448.417 198.946C447.026 203.787 444.752 208.264 441.729 212.114L399.571 267.511C399.223 267.975 398.793 268.357 398.305 268.636C397.817 268.916 397.281 269.087 396.729 269.139C396.176 269.191 395.618 269.124 395.086 268.941C394.555 268.758 394.06 268.464 393.632 268.074L341.824 221.575C334.6 215.023 330.012 205.686 329.057 195.594C328.101 185.501 330.855 175.469 336.72 167.678Z" fill="black"/>
<path d="M480.681 297.388C480.453 297.724 480.167 298.005 479.838 298.216C479.508 298.426 479.143 298.561 478.762 298.613C478.382 298.665 477.994 298.632 477.62 298.518C477.246 298.404 476.894 298.21 476.584 297.947C476.364 298.294 476.083 298.587 475.757 298.809C475.431 299.031 475.066 299.177 474.684 299.238C474.301 299.3 473.91 299.276 473.531 299.168C473.153 299.06 472.796 298.87 472.48 298.609C472.165 298.348 471.898 298.022 471.695 297.649C471.492 297.276 471.357 296.864 471.298 296.437C471.239 296.01 471.257 295.578 471.351 295.164C471.445 294.75 471.614 294.364 471.847 294.028L475.085 289.195C475.112 289.155 475.146 289.121 475.185 289.096C475.224 289.07 475.267 289.054 475.312 289.048C475.358 289.041 475.404 289.045 475.448 289.058C475.493 289.072 475.535 289.095 475.572 289.126L480.034 292.858C480.656 293.384 481.073 294.155 481.195 295.003C481.316 295.852 481.131 296.709 480.681 297.388Z" fill="black"/>
<path d="M474.505 332.756C474.435 332.764 474.392 332.699 474.374 332.56C474.357 332.422 474.383 332.348 474.452 332.339C475.101 332.257 475.578 332.127 475.885 331.947C476.168 331.77 476.346 331.501 476.418 331.139C476.469 330.803 476.452 330.288 476.364 329.593L473.941 310.355C473.626 307.855 473.993 305.822 475.042 304.255C476.065 302.668 477.676 301.736 479.875 301.459C480.709 301.354 481.402 301.443 481.955 301.726C482.528 301.983 482.853 302.413 482.929 303.015C482.981 303.431 482.889 303.819 482.652 304.178C482.412 304.514 482.037 304.714 481.528 304.778C481.019 304.843 480.608 304.753 480.295 304.51C479.979 304.244 479.673 303.871 479.378 303.391C479.169 303.041 478.972 302.784 478.787 302.619C478.601 302.454 478.393 302.387 478.161 302.416C477.559 302.492 477.173 302.975 477.004 303.867C476.808 304.738 476.831 306.134 477.073 308.056L479.741 329.239C479.829 329.933 479.974 330.432 480.177 330.736C480.357 331.042 480.674 331.226 481.128 331.286C481.562 331.373 482.231 331.359 483.134 331.245C483.18 331.239 483.212 331.306 483.229 331.445C483.247 331.584 483.232 331.656 483.186 331.662L481.098 331.89C479.981 331.983 479.099 332.071 478.45 332.153C477.825 332.231 477.03 332.355 476.063 332.524L474.505 332.756Z" fill="black"/>
<path d="M324.626 95.6636C324.696 95.6537 324.74 95.718 324.76 95.8565C324.78 95.9951 324.755 96.0694 324.686 96.0794C324.039 96.1725 323.564 96.3116 323.261 96.4968C322.981 96.6786 322.808 96.951 322.742 97.3141C322.696 97.6507 322.723 98.1654 322.823 98.8583L325.587 118.05C325.946 120.545 325.615 122.584 324.594 124.169C323.6 125.774 322.005 126.735 319.811 127.051C318.98 127.17 318.285 127.094 317.727 126.82C317.149 126.573 316.817 126.15 316.731 125.549C316.671 125.134 316.756 124.744 316.987 124.381C317.221 124.041 317.592 123.834 318.1 123.761C318.608 123.688 319.02 123.77 319.337 124.007C319.658 124.267 319.97 124.635 320.274 125.11C320.489 125.456 320.691 125.71 320.879 125.871C321.067 126.033 321.277 126.097 321.508 126.064C322.108 125.977 322.486 125.487 322.64 124.592C322.82 123.718 322.772 122.322 322.496 120.405L319.453 99.2729C319.353 98.5801 319.199 98.0836 318.991 97.7836C318.806 97.4802 318.485 97.3024 318.03 97.2501C317.594 97.1714 316.926 97.1969 316.025 97.3266C315.979 97.3333 315.946 97.2673 315.926 97.1288C315.906 96.9902 315.919 96.9176 315.966 96.9109L318.049 96.6462C319.164 96.5328 320.045 96.4295 320.692 96.3363C321.315 96.2465 322.109 96.1087 323.072 95.9228L324.626 95.6636Z" fill="black"/>
<rect width="230.147" height="333.563" rx="15" transform="matrix(-0.928872 0.3704 0.3704 0.928872 304.519 61.9702)" fill="url(#paint1_linear_45_645)"/>
<path d="M268.334 329.142C268.334 329.142 270.05 326.165 272.599 312.533C275.148 298.901 273.666 294.601 273.666 294.601C273.666 294.601 275.75 297.984 285.936 306.539C296.122 315.093 300.066 316.488 300.066 316.488C291.507 319.901 276.476 325.895 268.334 329.142Z" fill="black"/>
<path d="M301.027 219.524C305.55 221.621 309.667 224.61 313.143 228.321C316.618 232.032 319.384 236.392 321.283 241.152C323.182 245.912 324.176 250.979 324.208 256.063C324.241 261.147 323.312 266.149 321.473 270.784C319.635 275.418 316.924 279.594 313.495 283.074C310.065 286.553 305.985 289.267 301.487 291.062C296.988 292.856 292.16 293.695 287.278 293.531C282.395 293.367 277.554 292.204 273.031 290.107C272.828 290.012 272.61 289.961 272.39 289.959C272.171 289.956 271.955 290.001 271.756 290.09L271.434 290.235C271.08 290.394 270.8 290.686 270.647 291.054C266.863 300.38 259.617 307.612 250.503 311.16C241.389 314.707 231.153 314.28 222.048 309.971C212.943 305.662 205.714 297.826 201.952 288.185C198.19 278.544 198.202 267.889 201.986 258.563L230.59 186.48L301.027 219.524Z" fill="black"/>
<path d="M371.571 316.853C371.571 316.853 371.409 317.202 371.257 318.746C371.105 320.291 371.312 320.755 371.312 320.755C371.312 320.755 371.047 320.398 369.828 319.544C368.61 318.689 368.157 318.571 368.157 318.571C369.078 318.108 370.695 317.294 371.571 316.853Z" fill="black"/>
<path d="M368.99 329.39C368.465 329.2 367.977 328.907 367.554 328.527C367.13 328.147 366.78 327.688 366.522 327.176C366.264 326.663 366.104 326.108 366.051 325.542C365.998 324.975 366.053 324.409 366.213 323.874C366.373 323.34 366.635 322.848 366.984 322.427C367.332 322.006 367.761 321.663 368.245 321.42C368.729 321.176 369.259 321.036 369.805 321.007C370.351 320.978 370.902 321.06 371.426 321.25C371.45 321.259 371.475 321.262 371.499 321.261C371.524 321.259 371.547 321.252 371.568 321.24L371.603 321.221C371.641 321.199 371.669 321.164 371.683 321.122C372.014 320.045 372.752 319.169 373.733 318.685C374.715 318.201 375.86 318.15 376.917 318.542C377.974 318.934 378.856 319.737 379.369 320.775C379.881 321.814 379.983 323.002 379.652 324.078L377.162 332.391L368.99 329.39Z" fill="black"/>
<path d="M149.345 176.5C149.47 176.453 149.56 176.505 149.616 176.655C149.671 176.805 149.637 176.903 149.512 176.95C149.037 177.126 148.265 177.383 147.196 177.722C146.127 178.061 145.355 178.319 144.88 178.495C144.255 178.726 143.526 179.024 142.695 179.389C141.863 179.754 141.209 180.025 140.734 180.201C140.634 180.238 140.557 180.181 140.501 180.031C140.445 179.881 140.468 179.788 140.568 179.75C141.293 179.482 141.79 179.212 142.06 178.942C142.345 178.637 142.418 178.297 142.279 177.922C142.14 177.547 141.692 176.988 140.933 176.245L133.839 169.531L127.05 172.046L126.565 179.605C126.518 180.475 126.606 181.211 126.828 181.811C127.152 182.686 127.71 183.233 128.502 183.452C129.294 183.67 130.252 183.571 131.378 183.154C131.503 183.108 131.593 183.16 131.649 183.31C131.704 183.46 131.669 183.558 131.544 183.604C131.094 183.771 130.435 183.987 129.566 184.252C128.597 184.554 127.763 184.834 127.063 185.094C126.388 185.344 125.609 185.661 124.727 186.044C123.946 186.39 123.292 186.661 122.767 186.855C122.642 186.902 122.552 186.85 122.496 186.7C122.441 186.55 122.475 186.452 122.6 186.405C123.301 186.146 123.837 185.791 124.211 185.34C124.584 184.889 124.866 184.23 125.057 183.363C125.238 182.471 125.382 181.209 125.489 179.577L126.829 158.435C126.851 158.342 126.95 158.262 127.125 158.198C127.3 158.133 127.414 158.133 127.467 158.199L143.52 173.325C145.062 174.801 146.245 175.771 147.071 176.233C147.912 176.661 148.67 176.75 149.345 176.5ZM127.115 170.955L133.042 168.76L127.595 163.612L127.115 170.955Z" fill="black"/>
<path d="M366.005 342.13C365.884 342.186 365.79 342.141 365.723 341.996C365.656 341.851 365.683 341.75 365.804 341.694C366.264 341.481 367.013 341.164 368.052 340.743C369.091 340.321 369.841 340.004 370.3 339.791C370.906 339.512 371.608 339.157 372.409 338.728C373.21 338.3 373.84 337.979 374.3 337.766C374.397 337.721 374.479 337.772 374.546 337.917C374.613 338.062 374.598 338.157 374.501 338.202C373.799 338.526 373.324 338.834 373.077 339.125C372.816 339.451 372.77 339.795 372.938 340.159C373.106 340.522 373.597 341.044 374.411 341.725L382.009 347.863L388.58 344.825L388.472 337.251C388.451 336.38 388.306 335.653 388.038 335.073C387.646 334.225 387.047 333.724 386.24 333.568C385.434 333.412 384.486 333.586 383.397 334.089C383.275 334.145 383.181 334.101 383.114 333.955C383.047 333.81 383.074 333.71 383.195 333.654C383.631 333.452 384.271 333.185 385.117 332.853C386.059 332.477 386.869 332.131 387.547 331.818C388.2 331.516 388.951 331.139 389.8 330.688C390.552 330.282 391.183 329.961 391.691 329.726C391.812 329.67 391.906 329.714 391.973 329.86C392.04 330.005 392.013 330.106 391.892 330.161C391.215 330.475 390.707 330.871 390.371 331.35C390.034 331.829 389.804 332.508 389.682 333.387C389.571 334.29 389.526 335.56 389.548 337.195L389.866 358.377C389.851 358.472 389.759 358.558 389.589 358.637C389.42 358.715 389.306 358.723 389.249 358.662L372.061 344.839C370.408 343.487 369.152 342.614 368.293 342.218C367.421 341.857 366.659 341.828 366.005 342.13ZM388.601 345.917L382.864 348.57L388.697 353.276L388.601 345.917Z" fill="black"/>
<path d="M141.616 200.012C141.616 200.012 141.803 199.676 142.067 198.147C142.332 196.618 142.159 196.139 142.159 196.139C142.159 196.139 142.398 196.514 143.551 197.456C144.703 198.397 145.147 198.547 145.147 198.547C144.194 198.942 142.522 199.636 141.616 200.012Z" fill="black"/>
<path d="M145.104 187.696C145.614 187.924 146.079 188.252 146.474 188.662C146.868 189.072 147.184 189.555 147.404 190.085C147.624 190.615 147.743 191.18 147.755 191.749C147.766 192.318 147.67 192.879 147.471 193.4C147.273 193.922 146.976 194.393 146.598 194.788C146.219 195.182 145.767 195.492 145.266 195.7C144.766 195.908 144.227 196.009 143.68 195.998C143.134 195.987 142.59 195.865 142.081 195.637C142.058 195.627 142.034 195.622 142.009 195.622C141.985 195.622 141.961 195.627 141.938 195.637L141.903 195.654C141.863 195.672 141.832 195.705 141.816 195.747C141.407 196.796 140.607 197.617 139.593 198.028C138.579 198.439 137.433 198.407 136.407 197.939C135.382 197.471 134.561 196.605 134.125 195.532C133.689 194.459 133.674 193.267 134.083 192.218L137.172 184.108L145.104 187.696Z" fill="black"/>
<defs>
<linearGradient id="paint0_linear_45_645" x1="201.053" y1="7.48212e-06" x2="8.01554" y2="309.178" gradientUnits="userSpaceOnUse">
<stop stop-color="#BE9F60"/>
<stop offset="0.325" stop-color="#F6E486"/>
<stop offset="0.545" stop-color="#8A603C"/>
<stop offset="1" stop-color="#C39853"/>
</linearGradient>
<linearGradient id="paint1_linear_45_645" x1="285.619" y1="101.533" x2="16.2219" y2="351.076" gradientUnits="userSpaceOnUse">
<stop offset="0.025" stop-color="#BE9F60"/>
<stop offset="0.24" stop-color="#8A603C"/>
<stop offset="0.505" stop-color="#E2B561"/>
<stop offset="1" stop-color="#865F2C"/>
</linearGradient>
</defs>
</svg>
