<svg width="35" height="49" viewBox="0 0 35 49" fill="none" xmlns="http://www.w3.org/2000/svg">
<rect x="0.739014" y="0.0560303" width="33.7233" height="48.8769" rx="3" fill="url(#paint0_linear_8_889)"/>
<path d="M19.5735 34.7581C19.5735 34.7581 19.1783 34.4461 18.0915 32.729C17.0047 31.0119 16.973 30.3463 16.973 30.3463C16.973 30.3463 16.873 30.9199 15.9508 32.637C15.0287 34.3541 14.5677 34.7581 14.5677 34.7581C15.9179 34.7581 18.2891 34.7581 19.5735 34.7581Z" fill="black"/>
<path d="M9.17418 21.6127C8.67234 22.1436 8.27424 22.774 8.00261 23.4677C7.73098 24.1614 7.59114 24.9049 7.59106 25.6558C7.59099 26.4067 7.7307 27.1503 8.0022 27.8441C8.2737 28.5379 8.67168 29.1683 9.17342 29.6993C9.67516 30.2303 10.2708 30.6516 10.9264 30.939C11.582 31.2264 12.2847 31.3744 12.9943 31.3745C13.704 31.3745 14.4067 31.2267 15.0623 30.9394C15.7179 30.6521 16.3137 30.231 16.8155 29.7001C16.838 29.6761 16.865 29.6574 16.8947 29.6451C16.9244 29.6328 16.9562 29.6272 16.9881 29.6287L17.0398 29.6309C17.0966 29.6333 17.1506 29.6578 17.1914 29.6997C18.2126 30.7636 19.5914 31.3546 21.0244 31.3428C22.4575 31.331 23.8274 30.7173 24.8328 29.6367C25.8382 28.5561 26.3968 27.0971 26.3856 25.5807C26.3744 24.0643 25.7944 22.6147 24.7732 21.5509L16.9677 13.2923L9.17418 21.6127Z" fill="black"/>
<defs>
<linearGradient id="paint0_linear_8_889" x1="42.5907" y1="14.9336" x2="3.116" y2="51.499" gradientUnits="userSpaceOnUse">
<stop offset="0.025" stop-color="#BE9F60"/>
<stop offset="0.24" stop-color="#8A603C"/>
<stop offset="0.505" stop-color="#E2B561"/>
<stop offset="1" stop-color="#865F2C"/>
</linearGradient>
</defs>
</svg>
